<svg xmlns="http://www.w3.org/2000/svg" viewBox="0 0 122.83 125.36"><defs><style>.cls-1{fill:#191f6c;}</style></defs><title>30min-time</title><g id="Layer_2" data-name="Layer 2"><g id="_30min-time" data-name="30min-time"><path class="cls-1" d="M113,30.22c-3.58-5.37-11.85-.66-8.71,5.3l.13.22a50.91,50.91,0,0,1,4.3,8.21,5.1,5.1,0,1,0,9.43-3.89A62.25,62.25,0,0,0,113,30.22ZM36.38,92.69l2.23-18.84h4.62l3.88,13.24L51,73.85h4.6l2.25,18.84H53.07L51.62,80.57h.71l-3,12.1H44.75l-3-12.1h.78L41.12,92.69Zm24.35,0V73.85h4.92V92.69Zm8.34,0V73.85H73l6.62,10.5V73.85H84.5V92.69H80.6L74,82.19v10.5ZM49,68q-3.42,0-6.62-.3a54.12,54.12,0,0,1-5.94-.86V60.21h9.31A15,15,0,0,0,48.3,60a2.2,2.2,0,0,0,1.26-.56,1.53,1.53,0,0,0,.34-1.07V57.6a2,2,0,0,0-.38-1.24,2.32,2.32,0,0,0-1.11-.7,7.27,7.27,0,0,0-1.8-.28L39,55V48.63l7.23-.47a7.8,7.8,0,0,0,2.52-.51,1.4,1.4,0,0,0,.81-1.37v-.39a1.9,1.9,0,0,0-.86-1.75,6.84,6.84,0,0,0-3.16-.51H36.8V37q2.79-.47,5.86-.87a40.72,40.72,0,0,1,6.24-.33,12.32,12.32,0,0,1,4.72.92,6.61,6.61,0,0,1,3.05,2.65,8.67,8.67,0,0,1,1.07,4.51V46a9.61,9.61,0,0,1-.19,2A5.77,5.77,0,0,1,57,49.63,4.33,4.33,0,0,1,55.82,51a5.11,5.11,0,0,1-1.67.9,4.69,4.69,0,0,1,1.78,1,6,6,0,0,1,1.24,1.56,8.44,8.44,0,0,1,.74,2,11,11,0,0,1,.26,2.42v1.24A7.3,7.3,0,0,1,55.71,66a10.22,10.22,0,0,1-6.77,2ZM69.9,68a10.17,10.17,0,0,1-4.85-1,6.35,6.35,0,0,1-2.88-3,10.53,10.53,0,0,1-.94-4.63V44.82a11.06,11.06,0,0,1,1-5,6.93,6.93,0,0,1,3-3.06,10.05,10.05,0,0,1,4.73-1h6.92a9.14,9.14,0,0,1,4.56,1.05,7,7,0,0,1,2.82,3.06,11.33,11.33,0,0,1,1,5V59.4a8.89,8.89,0,0,1-2.16,6.32A8,8,0,0,1,76.88,68Zm2-7.44h2.56a2.12,2.12,0,0,0,2.41-1.8,2.22,2.22,0,0,0,0-.68V45.68a2.52,2.52,0,0,0-.6-2,2.23,2.23,0,0,0-1.45-.49H71.63a2,2,0,0,0-1.62.6,2.87,2.87,0,0,0-.52,1.88v12.4a2.64,2.64,0,0,0,.6,2,2.57,2.57,0,0,0,1.84.57Zm32.66-43.93a5.37,5.37,0,0,1,.33,1.57A5.13,5.13,0,0,1,101.35,24L87.66,28.15a5.13,5.13,0,0,1-3-9.81L86,18a52,52,0,1,0-37.2,96.2,5.52,5.52,0,0,1,2.29,0,50.79,50.79,0,0,0,9.2,1l-.59.48h.59v-.49h0a4.83,4.83,0,0,1,2.8.92,4.6,4.6,0,0,1-.07,8.41,5.19,5.19,0,0,1-2.93.87,68.45,68.45,0,0,1-11-1.23,4.67,4.67,0,0,1-1.08-.34,5.8,5.8,0,0,1-1-.56A61.22,61.22,0,1,1,91.16,10.3L89.87,7a5.14,5.14,0,0,1,9.61-3.66l5.11,13.38ZM60.09,124.87a61.76,61.76,0,0,1-10.59-1.1l-.46.36,11.05,1.23Zm18.42-12.61a5,5,0,0,0-1.57.9,5.1,5.1,0,0,0,5,8.72A62.23,62.23,0,0,0,92,117.26,5.1,5.1,0,1,0,87,108.41a48.22,48.22,0,0,1-8.43,3.85ZM101,96.5a5.11,5.11,0,0,0,6.8,7.47,5.25,5.25,0,0,0,1.16-1,62.26,62.26,0,0,0,6.21-9.22,5.11,5.11,0,0,0-8.62-5.43A74.4,74.4,0,0,1,101,96.5Zm11.1-25.22a5.11,5.11,0,0,0,9.79,2.63,5.58,5.58,0,0,0,.31-1.15,61.25,61.25,0,0,0,.64-11.08c-.28-6.29-9.56-6.74-10.19-.11v.83a52.78,52.78,0,0,1-.56,8.88Z"/></g></g></svg>