<svg xmlns="http://www.w3.org/2000/svg" xmlns:xlink="http://www.w3.org/1999/xlink" viewBox="0 0 206.4 349.64"><defs><style>.cls-1{fill:#191f6c;}.cls-2{clip-path:url(#clip-path);}.cls-3{clip-path:url(#clip-path-2);}.cls-4{clip-path:url(#clip-path-3);}.cls-5{fill:#b20307;}</style><clipPath id="clip-path"><rect class="cls-1" x="29.88" y="347.36" width="129.76" height="2.28"/></clipPath><clipPath id="clip-path-2"><rect class="cls-1" x="93.36" y="219.1" width="2.8" height="130.53"/></clipPath><clipPath id="clip-path-3"><rect class="cls-1" x="198.41" y="218.19" width="7.98" height="2.66"/></clipPath></defs><title>glass-wine</title><g id="Layer_2" data-name="Layer 2"><g id="Layer_1-2" data-name="Layer 1"><path class="cls-1" d="M94.74,221q-21.69-4.72-37.42-13Q31,194.08,21.44,170.1T19.3,112.36Q26,81.61,46.59,42.63a1,1,0,0,1,.84-.5h95a1,1,0,0,1,.87.58Q222.9,193.26,95.14,221A1.34,1.34,0,0,1,94.74,221ZM58.2,206.31q15.42,8.13,36.74,12.77Q219.83,191.87,141.89,44H48Q27.74,82.46,21.15,112.75q-7.24,33.28,2,56.66t35,36.9"/><rect class="cls-1" x="29.88" y="347.36" width="129.76" height="2.28"/><g class="cls-2"><path class="cls-1" d="M31.44,349.64a.95.95,0,0,1,0-1.9h127a.95.95,0,0,1,0,1.9h-127"/></g><rect class="cls-1" x="93.36" y="219.1" width="2.8" height="130.53"/><g class="cls-3"><path class="cls-1" d="M94,220.05a.95.95,0,0,1,1.89,0V348.69a.95.95,0,1,1-1.89,0V220.05"/></g><path class="cls-1" d="M94.54,210.42a133.16,133.16,0,0,1-30.2-10.07A76.89,76.89,0,0,1,42.64,185a59.33,59.33,0,0,1-13.12-20.62,72.48,72.48,0,0,1-4.34-25.74,2,2,0,0,1,.55-1.34,1.91,1.91,0,0,1,1.34-.54h.26l1.1.14,1.1.09,1.12.05h1.11a30.77,30.77,0,0,0,5-.49,33.8,33.8,0,0,0,5.06-1.33,39.07,39.07,0,0,0,5-2.13,44.53,44.53,0,0,0,4.91-2.91,52.81,52.81,0,0,1,5.51-3.33,40,40,0,0,1,5.47-2.36,32.77,32.77,0,0,1,5.53-1.41,31.12,31.12,0,0,1,5.63-.41,33.48,33.48,0,0,1,5.6.54,37.32,37.32,0,0,1,5.63,1.46,42.82,42.82,0,0,1,5.52,2.34A46.92,46.92,0,0,1,96,130.24a52.82,52.82,0,0,0,5.1,3.08,37.34,37.34,0,0,0,5,2.16,30.77,30.77,0,0,0,4.91,1.25,28.58,28.58,0,0,0,5,.37,30.54,30.54,0,0,0,5-.49,34,34,0,0,0,5.08-1.33,39,39,0,0,0,5-2.13,45.48,45.48,0,0,0,4.91-2.91,52.81,52.81,0,0,1,5.51-3.33,41,41,0,0,1,5.47-2.36,32.77,32.77,0,0,1,5.53-1.41,31.1,31.1,0,0,1,5.64-.41l1,0c.37,0,.69,0,1,.06l1,.08,1,.12a1.86,1.86,0,0,1,1.08.54,1.82,1.82,0,0,1,.55,1.08q2.36,17.16-.76,31.13a60.06,60.06,0,0,1-11.74,24.81,71.58,71.58,0,0,1-22.58,18.22q-14,7.44-33.28,11.63a1.7,1.7,0,0,1-.4,0A1.87,1.87,0,0,1,94.54,210.42ZM65.17,198.66a131.51,131.51,0,0,0,29.77,9.92h0q19.08-4.14,32.79-11.45a69.59,69.59,0,0,0,22-17.73,58,58,0,0,0,11.38-24q3-13.65.73-30.48l-1-.12-.91-.07-.91-.06-.94,0a30.76,30.76,0,0,0-10.52,1.73,38.32,38.32,0,0,0-5.22,2.26,51.37,51.37,0,0,0-5.32,3.2,44.43,44.43,0,0,1-5.12,3,40.07,40.07,0,0,1-5.29,2.24,36.21,36.21,0,0,1-5.34,1.39,33.37,33.37,0,0,1-5.3.52,30.15,30.15,0,0,1-5.3-.39,32,32,0,0,1-5.22-1.33,39.35,39.35,0,0,1-5.24-2.27,51,51,0,0,1-5.29-3.2,47.24,47.24,0,0,0-5.13-3,41.46,41.46,0,0,0-5.29-2.24,37,37,0,0,0-5.35-1.39,33.13,33.13,0,0,0-5.29-.52,30.23,30.23,0,0,0-5.3.4,30.87,30.87,0,0,0-5.23,1.33,38.75,38.75,0,0,0-5.21,2.26,50.23,50.23,0,0,0-5.31,3.2,44.54,44.54,0,0,1-5.13,3,40.07,40.07,0,0,1-5.29,2.24,36.21,36.21,0,0,1-5.34,1.39,33.25,33.25,0,0,1-5.3.52H30.61l-1.19-.05c-.39,0-.78-.06-1.18-.1s-.75-.08-1.12-.14h-.05a70.73,70.73,0,0,0,4.21,25.08,57.49,57.49,0,0,0,12.71,20A75.06,75.06,0,0,0,65.17,198.66ZM95,208.58h0"/><path class="cls-1" d="M132.81,59.93a.94.94,0,0,1,.39-1.27,1,1,0,0,1,1.28.39c1.34,2.54,2.6,5,3.8,7.4s2.34,4.76,3.48,7.2a.94.94,0,0,1-.45,1.25,1,1,0,0,1-1.26-.45c-1.06-2.29-2.22-4.67-3.47-7.17S134.1,62.37,132.81,59.93Zm12.94,27.56a.94.94,0,0,1,1.75-.7q8.38,20.77,10.84,38.05T157.25,156a.94.94,0,0,1-1.83-.47q3.45-13.46,1.05-30.44T145.75,87.49"/><path class="cls-1" d="M42.85,144.65a5.69,5.69,0,0,1,4,1.67,5.69,5.69,0,0,1,0,8.05,5.7,5.7,0,1,1-4-9.72Zm2.7,3a3.79,3.79,0,1,0,1.12,2.69,3.78,3.78,0,0,0-1.12-2.69"/><path class="cls-1" d="M111.77,184.77a5.7,5.7,0,1,1-4,1.67A5.69,5.69,0,0,1,111.77,184.77Zm2.7,3a3.81,3.81,0,1,0-2.7,6.5,3.79,3.79,0,0,0,3.81-3.81,3.83,3.83,0,0,0-1.11-2.69"/><path class="cls-1" d="M125.46,147.43a5.7,5.7,0,1,1-4,1.67A5.69,5.69,0,0,1,125.46,147.43Zm2.69,3a3.78,3.78,0,0,0-2.69-1.12,3.81,3.81,0,1,0,0,7.62,3.8,3.8,0,0,0,2.69-6.5"/><path class="cls-1" d="M140.2,167.54a5.7,5.7,0,1,1-4,1.67A5.66,5.66,0,0,1,140.2,167.54Zm2.7,3a3.78,3.78,0,1,0,1.12,2.68,3.76,3.76,0,0,0-1.12-2.68"/><path class="cls-1" d="M.28,30.43a.94.94,0,1,1,1.33-1.34l29,29a.94.94,0,0,1-1.33,1.33l-29-29"/><path class="cls-1" d="M1.61,59.4A.94.94,0,0,1,.28,58.07l29-29a.94.94,0,0,1,1.33,1.34l-29,29"/><path class="cls-1" d="M16.4,35.44a.95.95,0,0,1-1.89,0V29.76a.95.95,0,0,1,1.89,0v5.68"/><path class="cls-1" d="M16.4,58.74a.95.95,0,1,1-1.89,0V53.06a.95.95,0,0,1,1.89,0v5.68"/><path class="cls-1" d="M24.28,45.2a1,1,0,0,1,0-1.9H30a.95.95,0,0,1,0,1.9H24.28"/><path class="cls-1" d="M61,233a.94.94,0,0,1,1.33-1.34l15.8,15.77a.95.95,0,0,1-1.34,1.34L61,233"/><path class="cls-1" d="M62.35,248.74a.94.94,0,0,1-1.33,0,1,1,0,0,1,0-1.34l15.79-15.77a1,1,0,0,1,1.34,0,1,1,0,0,1,0,1.34l-15.8,15.77"/><path class="cls-1" d="M191.89,210.74a.95.95,0,0,1-1.89,0v-5.68a.95.95,0,0,1,1.89,0v5.68"/><path class="cls-1" d="M191.89,234a.95.95,0,0,1-1.89,0v-5.68a.95.95,0,0,1,1.89,0V234"/><rect class="cls-1" x="198.41" y="218.19" width="7.98" height="2.66"/><g class="cls-4"><path class="cls-1" d="M199.77,220.49a.94.94,0,1,1,0-1.88h5.68a.94.94,0,1,1,0,1.88h-5.68"/></g><path class="cls-1" d="M176.44,220.49a.94.94,0,1,1,0-1.88h5.68a.94.94,0,0,1,0,1.88h-5.68"/><path class="cls-5" d="M138.33,6.62a.95.95,0,0,1-1.89,0V1a.95.95,0,1,1,1.89,0V6.62"/></g></g></svg>