<svg xmlns="http://www.w3.org/2000/svg" xmlns:xlink="http://www.w3.org/1999/xlink" viewBox="0 0 251.36 219.39"><defs><style>.cls-1{fill:none;}.cls-2{clip-path:url(#clip-path);}.cls-3{fill:#191f6c;}</style><clipPath id="clip-path" transform="translate(0.02 -0.08)"><rect class="cls-1" width="251.4" height="219.47"/></clipPath></defs><title>holding-glassv2</title><g id="Layer_2" data-name="Layer 2"><g id="Layer_1-2" data-name="Layer 1"><g class="cls-2"><path class="cls-3" d="M154.28,209.85H45.62c-1-5.43-1.9-10.7-2.8-16H69.94a20.66,20.66,0,0,0,13.11-36.69,20.47,20.47,0,0,0,0-31.88,20.52,20.52,0,0,0,3.08-28.84c-.38-.47-.77-.92-1.19-1.35A20.69,20.69,0,0,0,74.16,56.74H28.45c-.82-23.21-.51-39.65-.24-47.05H171.69c.13,3.63.28,9.58.3,17.28a28.22,28.22,0,0,0-14.88-1.18l-30,6a28.34,28.34,0,0,0-22.8,28.53l1.56,64.52a4.82,4.82,0,0,0,3.82,4.59,19.09,19.09,0,0,0,3.54.3A26.23,26.23,0,0,0,129.46,124q11.41-9,15.33-29.78C149.59,102.8,156.94,113,167,121,164.31,147.43,160.36,177.21,154.28,209.85ZM29.18,184.26a11.13,11.13,0,0,1,0-22.26H69.93a11.13,11.13,0,0,1,0,22.26Zm-19.58-43a11.14,11.14,0,0,1,11.12-11.13H69.93a11.13,11.13,0,0,1,0,22.26H20.72A11.15,11.15,0,0,1,9.6,141.25Zm11.12-43H69.93a11.13,11.13,0,0,1,0,22.26H20.72a11.13,11.13,0,0,1,0-22.26ZM25,66.36H74.16a11.13,11.13,0,1,1,0,22.26H25a11.13,11.13,0,0,1,0-22.26ZM246.6,173.47H219.8a4.79,4.79,0,0,0-2.67.81,59.18,59.18,0,0,1-32.92,10H168.42c3.25-20.36,5.75-39.49,7.61-57.13a4.75,4.75,0,0,0,5.74-2.06,4.83,4.83,0,0,0-1.74-6.58h0c-23.09-13.21-33.49-43.31-33.59-43.61A4.81,4.81,0,0,0,137,76.25c-.94,25-7.75,35.6-13.31,40.05a17,17,0,0,1-8.34,3.68l-1.46-59.89A18.73,18.73,0,0,1,129,41.23l30-6a18.81,18.81,0,0,1,16.49,4.69l45.3,42.33a4.81,4.81,0,0,0,3.28,1.3h22.47a4.82,4.82,0,0,0,0-9.63H226l-43.91-41c-.14-.13-.32-.21-.46-.33.09-17.68-.48-27.69-.51-28a4.81,4.81,0,0,0-4.8-4.51H23.61a4.81,4.81,0,0,0-4.8,4.51c0,.41-1.14,20,.05,53.19a20.58,20.58,0,0,0-8.92,34A20.55,20.55,0,0,0,7.6,125.31a20.61,20.61,0,0,0,5.29,35.13,20.52,20.52,0,0,0-4.45,12.69,20.77,20.77,0,0,0,20.74,20.75h3.9c1.2,7.12,2.43,14.28,3.83,21.68a4.81,4.81,0,0,0,4.73,3.91H158.27a4.8,4.8,0,0,0,4.72-3.91c1.41-7.39,2.66-14.56,3.86-21.68h17.31a68.62,68.62,0,0,0,37-10.79h25.37a4.81,4.81,0,0,0,0-9.62" transform="translate(0.02 -0.08)"/></g><path class="cls-3" d="M97.45,80.71c-.28,1-2.76,12.56-2.42,13.49,1.69,4.69,6.12,19.35-1.16,28a3.27,3.27,0,0,0-.44,3.48c2.59,5.62,8.8,21.75-.18,30.49a3.3,3.3,0,0,0-.64,3.78c2.72,5.72,8.64,20.92-.16,29.72-9.77,9.77-28.35,10.15-36.5,9.79a3.32,3.32,0,0,0-3.42,3.78v.09a3.33,3.33,0,0,0,3.29,2.84h87.28a3.32,3.32,0,0,0,3.28-2.8L158.75,124a3.32,3.32,0,0,0-.56-2.41l-7.81-11.24a3.32,3.32,0,0,0-5.81.67c-3.29,8.56-11.79,22.88-31.91,23.67h-.44c-1.54-.13-10.27-1.19-10.27-8.49s1-30.3.5-45.5" transform="translate(0.02 -0.08)"/></g></g></svg>