<svg xmlns="http://www.w3.org/2000/svg" xmlns:xlink="http://www.w3.org/1999/xlink" viewBox="0 0 254.07 229.05"><defs><style>.cls-1{fill:none;}.cls-2{fill:#191f6c;}.cls-3{clip-path:url(#clip-path);}</style><clipPath id="clip-path"><rect class="cls-1" x="187.33" y="73" width="66.98" height="47.94"/></clipPath></defs><title>instant-result</title><g id="Layer_2" data-name="Layer 2"><g id="Layer_1-2" data-name="Layer 1"><g id="instant-result"><path class="cls-2" d="M173.37,187.21l12.15,17A116.47,116.47,0,0,0,194.8,196l-15.27-14.28c-2,1.91-4,3.73-6.16,5.46"/><path class="cls-2" d="M185.86,175l15.27,14.28c2.39-2.78,4.66-5.66,6.77-8.67l-17.55-11.37c-1.43,2-2.92,3.9-4.49,5.76"/><path class="cls-2" d="M153,199.79l7.19,19.67A113.66,113.66,0,0,0,176.09,211l-12.15-17a95,95,0,0,1-10.9,5.85"/><path class="cls-2" d="M201.94,147.65,221.09,156c.81-2.09,1.58-4.21,2.28-6.36l-19.84-6.42c-.49,1.5-1,3-1.59,4.42"/><path class="cls-2" d="M131.94,206.52A93.65,93.65,0,1,1,162.58,34.28l-7.78,8L199,52.59,187.21,8.89,177.45,19A114.28,114.28,0,0,0,93,2C31.06,13.83-9.77,73.91,2,135.94S73.86,238.83,135.84,227a112.49,112.49,0,0,0,11.35-2.77L140,204.57c-2.64.75-5.32,1.43-8.05,2"/><path class="cls-2" d="M195.4,161.44l17.53,11.36c1.59-2.7,3.09-5.45,4.46-8.29l-19.15-8.36c-.9,1.8-1.84,3.56-2.84,5.29"/><path class="cls-2" d="M119.34,145.51a28.09,28.09,0,0,0,2.1-11.1q0-7.77-3.14-12.77a19,19,0,0,0-9.06-7.46,18,18,0,0,0,7.21-7.83,24.07,24.07,0,0,0,2.4-10.55,20.86,20.86,0,0,0-2-9.06,21.24,21.24,0,0,0-5.42-7.1,24.69,24.69,0,0,0-8.08-4.56,30,30,0,0,0-9.92-1.6,28.94,28.94,0,0,0-10.65,1.91,24.6,24.6,0,0,0-8.39,5.37A23.6,23.6,0,0,0,69,89a28.92,28.92,0,0,0-1.91,10.73H82c0-4.27,1-7.59,3.08-9.93a9.89,9.89,0,0,1,7.77-3.51q5.55,0,8.07,3.2c1.68,2.14,2.53,5.27,2.53,9.37a13.49,13.49,0,0,1-.68,4.27,8,8,0,0,1-2.47,3.57,13.15,13.15,0,0,1-5,2.46,31.61,31.61,0,0,1-8.44.93v11.22q10,0,14.11,2.84t4.13,10q0,6.54-3.33,10.05a11,11,0,0,1-8.38,3.52c-4,0-7.07-1.09-9.12-3.27s-3.08-5.65-3.08-10.42H65.73q0,12.59,7,19.73t19.84,7.16a35.42,35.42,0,0,0,11.71-1.85,27.11,27.11,0,0,0,9.12-5.24,22.92,22.92,0,0,0,5.91-8.33"/><path class="cls-2" d="M163.83,131.51a41,41,0,0,1-2.15,9.5,12.08,12.08,0,0,1-3.58,5.3A8.1,8.1,0,0,1,153,148a8.36,8.36,0,0,1-5.12-1.61,12,12,0,0,1-3.63-5.3,39.26,39.26,0,0,1-2.22-9.62,119.69,119.69,0,0,1-.74-14.43,117.93,117.93,0,0,1,.74-14.37,38.27,38.27,0,0,1,2.22-9.5,12,12,0,0,1,3.63-5.24,8.35,8.35,0,0,1,5.12-1.6A8.1,8.1,0,0,1,158.1,88a12.08,12.08,0,0,1,3.58,5.3,41.11,41.11,0,0,1,2.15,9.56,117.73,117.73,0,0,1,.74,14.44A114.8,114.8,0,0,1,163.83,131.51Zm9.43,18.62q7.58-10.78,7.58-33.61a84.16,84.16,0,0,0-2-19.61,39.18,39.18,0,0,0-5.61-13.32A22.45,22.45,0,0,0,164.39,76a27.5,27.5,0,0,0-11.9-2.47A27.12,27.12,0,0,0,140.66,76a22.12,22.12,0,0,0-8.75,7.7,39,39,0,0,0-5.42,13.45,90.78,90.78,0,0,0-1.85,19.67,93.25,93.25,0,0,0,1.85,19.92,40.4,40.4,0,0,0,5.42,13.69,22.85,22.85,0,0,0,8.75,8,26.19,26.19,0,0,0,11.83,2.59,24,24,0,0,0,20.77-10.8"/><g class="cls-3"><path class="cls-2" d="M252.91,82.8a15.38,15.38,0,0,0-3.21-4.89,14.27,14.27,0,0,0-4.93-3.27,17,17,0,0,0-6.34-1.16A15,15,0,0,0,231,75.21a12.19,12.19,0,0,0-4.93,5.54,25.86,25.86,0,0,0-2.61-3.36,13.43,13.43,0,0,0-2.75-2.28,10.07,10.07,0,0,0-3.26-1.26,20.61,20.61,0,0,0-4.14-.37,16.88,16.88,0,0,0-7.82,1.68q-3.27,1.68-5.59,6.24V74.69H188.52v45.86h12.11V92.67q0-8.94,7.35-8.94a11.8,11.8,0,0,1,3.36.42,4.73,4.73,0,0,1,2.27,1.44,6.21,6.21,0,0,1,1.26,2.8,22.63,22.63,0,0,1,.38,4.56v27.6h12.1V93.15a11,11,0,0,1,2.19-7,6.72,6.72,0,0,1,5.54-2.8A6.18,6.18,0,0,1,240.29,86a11,11,0,0,1,2,6.8v27.78h11.82V88.76a15.26,15.26,0,0,0-1.16-6"/></g><path class="cls-2" d="M62.54,86.45a30.82,30.82,0,0,1,7-10.66,31.7,31.7,0,0,1,10.72-6.87,35.87,35.87,0,0,1,13.19-2.4,37.16,37.16,0,0,1,12.2,2,31.9,31.9,0,0,1,9,4.87v-41a82.18,82.18,0,0,0,0,164.35V161.58a35.17,35.17,0,0,1-8.11,4.06,42.29,42.29,0,0,1-14,2.24c-10.43,0-18.78-3.1-24.8-9.23s-9-14.37-9-24.61v-7H79.86V106.7H60.14v-7a36,36,0,0,1,2.4-13.3"/></g></g></g></svg>