<svg xmlns="http://www.w3.org/2000/svg" viewBox="0 0 59.59 60.87"><defs><style>.cls-1{fill:none;stroke:#191f6c;stroke-miterlimit:10;}.cls-2{fill:#191f6c;}</style></defs><title>instant-result</title><g id="Layer_2" data-name="Layer 2"><g id="instant-result"><path class="cls-1" d="M29.49,53.5h0a16.08,16.08,0,0,1-1.84-.07h0a23.81,23.81,0,0,1-9.93-3,13.83,13.83,0,0,1-1.57-1A23.86,23.86,0,0,1,9,42c-.32-.53-.62-1.06-.89-1.62A23.52,23.52,0,0,1,5.49,30.27h0V28.43h0A23.55,23.55,0,0,1,8.26,18.28h0c.28-.55.59-1.08.92-1.6A24,24,0,0,1,53.49,29.49h0a14.24,14.24,0,0,1-.08,1.85"/><path class="cls-1" d="M32,58.39c-.81.07-1.64.11-2.47.11a29,29,0,1,1,29-29h0A27.78,27.78,0,0,1,58,34.73"/><rect class="cls-2" x="28.76" y="5.83" width="1.85" height="3.7"/><rect class="cls-2" x="17.57" y="8.53" width="1.85" height="3.7" transform="translate(-2.71 10.64) rotate(-30)"/><path class="cls-2" d="M12.22,18.43,11.3,20l-3-1.75h0c.28-.55.59-1.08.92-1.6Z"/><path class="cls-2" d="M8.75,28.42v1.85H5.49V28.43Z"/><path class="cls-2" d="M11.66,40.4,9,42c-.32-.53-.62-1.06-.89-1.62l2.66-1.54Z"/><path class="cls-2" d="M19.25,47.73,17.7,50.41a13.83,13.83,0,0,1-1.57-1l1.52-2.64Z"/><rect class="cls-2" x="27.63" y="50.28" width="1.85" height="3.7"/><path class="cls-2" d="M53.49,29.54a14.24,14.24,0,0,1-.08,1.85H49.49V29.54Z"/><rect class="cls-2" x="46.8" y="18.35" width="3.7" height="1.85" transform="translate(-3.12 26.91) rotate(-30)"/><rect class="cls-2" x="39.03" y="10.05" width="3.71" height="1.86" transform="translate(10.99 40.96) rotate(-60.11)"/><path class="cls-2" d="M32,28.44a3.36,3.36,0,0,0-1.89-1h0a3.25,3.25,0,0,0-3.67,2.77h0a2.42,2.42,0,0,0,0,.76,3.24,3.24,0,1,0,5.6-2.53Zm-.55,3.41a2.19,2.19,0,0,1-2.13,1,2.24,2.24,0,0,1-.83-.3h0a2.17,2.17,0,0,1-1-2,.24.24,0,0,1,0-.12,2.21,2.21,0,0,1,2.14-1.87H30A2.16,2.16,0,0,1,31.8,31a2.3,2.3,0,0,1-.28.81Z"/><path class="cls-2" d="M28.51,32.51a1.64,1.64,0,0,0-.49.1l-.73.29c-1.73.67-3.43,1.39-5.14,2.09l-6,2.45c-.79.31-1.43.13-1.67-.46s.09-1.16.88-1.49c3.69-1.5,7.39-3,11.07-4.52l.87-.36a.63.63,0,0,0,.2-.13A2.18,2.18,0,0,0,28.51,32.51Z"/><path class="cls-2" d="M31.82,29a1.7,1.7,0,0,0,0,1.09,2,2,0,0,1-.26,1.75,2.3,2.3,0,0,0,.28-.81,2.16,2.16,0,0,0-1.79-2.48h-.4a2.59,2.59,0,0,0,.26-.46c.07-.19.16-.39.24-.59.87-2,1.74-4.08,2.63-6.12.37-.86.91-1.19,1.53-.93a1.24,1.24,0,0,1,.46,1.78c-.91,2.09-1.84,4.17-2.73,6.27Z"/><path class="cls-1" d="M56.61,60.37H38.26a.7.7,0,0,1-.7-.62l-2-18.27a1.23,1.23,0,0,1,1.08-1.36h.13L57.86,40a1.23,1.23,0,0,1,1.23,1.23.66.66,0,0,1,0,.14L57,60A.4.4,0,0,1,56.61,60.37Z"/><rect class="cls-2" x="52.29" y="48.6" width="3.45" height="3.46" transform="translate(-19.77 52.94) rotate(-45)"/><rect class="cls-2" x="50.74" y="54.36" width="3.45" height="3.46" transform="translate(-24.3 53.53) rotate(-45)"/><path class="cls-2" d="M32.11,28.25a3.55,3.55,0,0,0-2.51-1.06,3.48,3.48,0,0,0-3.48,3.48,3.09,3.09,0,0,0,0,.43,3.48,3.48,0,1,0,6-2.85Zm-4.36,2.4A1.85,1.85,0,1,1,29.6,32.5,1.85,1.85,0,0,1,27.75,30.65Z"/></g></g></svg>