<svg xmlns="http://www.w3.org/2000/svg" viewBox="0 0 61.59 62.87"><defs><style>.cls-1{fill:none;stroke:#191f6c;stroke-miterlimit:10;stroke-width:3px;}.cls-2{fill:#191f6c;}</style></defs><title>Asset 2</title><g id="Layer_2" data-name="Layer 2"><g id="Layer_1-2" data-name="Layer 1"><path class="cls-1" d="M30.49,54.5h0a16.08,16.08,0,0,1-1.84-.07h0a23.81,23.81,0,0,1-9.93-3,13.83,13.83,0,0,1-1.57-1A23.86,23.86,0,0,1,10,43c-.32-.53-.62-1.06-.89-1.62A23.52,23.52,0,0,1,6.49,31.27h0V29.43h0A23.55,23.55,0,0,1,9.26,19.28h0c.28-.55.59-1.08.92-1.6A24,24,0,0,1,54.49,30.49h0a14.24,14.24,0,0,1-.08,1.85"/><path class="cls-1" d="M33,59.39c-.81.07-1.64.11-2.47.11a29,29,0,1,1,29-29h0A27.78,27.78,0,0,1,59,35.73"/><rect class="cls-2" x="29.76" y="6.83" width="1.85" height="3.7"/><rect class="cls-2" x="18.57" y="9.53" width="1.85" height="3.7" transform="translate(-3.08 11.27) rotate(-30)"/><path class="cls-2" d="M13.22,19.43,12.3,21l-3-1.75h0c.28-.55.59-1.08.92-1.6Z"/><path class="cls-2" d="M9.75,29.42v1.85H6.49V29.43Z"/><path class="cls-2" d="M12.66,41.4,10,43c-.32-.53-.62-1.06-.89-1.62l2.66-1.54Z"/><path class="cls-2" d="M20.25,48.73,18.7,51.41a13.83,13.83,0,0,1-1.57-1l1.52-2.64Z"/><rect class="cls-2" x="28.63" y="51.28" width="1.85" height="3.7"/><path class="cls-2" d="M54.49,30.54a14.24,14.24,0,0,1-.08,1.85H50.49V30.54Z"/><rect class="cls-2" x="47.8" y="19.35" width="3.7" height="1.85" transform="translate(-3.48 27.54) rotate(-30)"/><rect class="cls-2" x="40.03" y="11.05" width="3.71" height="1.86" transform="translate(10.63 42.33) rotate(-60.11)"/><path class="cls-2" d="M33.91,31.31a3.16,3.16,0,0,0-.47-1.37,2.59,2.59,0,0,0-.37-.5h0a3.27,3.27,0,0,0-1.7-1l-.19,0a3.55,3.55,0,0,0-.46,0,3.24,3.24,0,0,0-3.21,2.79h0a2.42,2.42,0,0,0,0,.76l0,.2a3.24,3.24,0,0,0,6.41-.86Zm-1.39,1.48,0,.06a2.23,2.23,0,0,1-2.13,1,3.09,3.09,0,0,1-.46-.12h0a2.42,2.42,0,0,1-.36-.18,2.18,2.18,0,0,1-1-1.8v0a1.09,1.09,0,0,1,0-.18.24.24,0,0,1,0-.12,2.18,2.18,0,0,1,2.14-1.87H31a2.09,2.09,0,0,1,1.62,1.22h0A2.18,2.18,0,0,1,32.8,32,2.37,2.37,0,0,1,32.52,32.79Z"/><path class="cls-2" d="M30.15,33.69a1.17,1.17,0,0,0-.26,0h0a1.11,1.11,0,0,0-.26.07l-.8.32-.14.06-.32.12c-1.73.68-3.43,1.4-5.15,2.1l-6.55,2.68c-.87.33-1.56.14-1.83-.51s.1-1.26,1-1.62c3.79-1.54,7.59-3.08,11.37-4.64l.34-.14.38-.16.63-.26.24-.1a1.83,1.83,0,0,0,.85,1.55A2.15,2.15,0,0,0,30.15,33.69Z"/><path class="cls-2" d="M36.66,22.51c-1,2.42-2.12,4.83-3.15,7.26l0,.12,0,.05-.24.55a2,2,0,0,0,0,1.28,2.27,2.27,0,0,1-.31,2.05,2.62,2.62,0,0,0,.33-1,2.53,2.53,0,0,0-.61-2.08h0a2.42,2.42,0,0,0-1-.71h0a1.55,1.55,0,0,0-.77-.24h0a2.07,2.07,0,0,0,.15-.25L31,29.4c.08-.22.19-.45.28-.69,0-.08.07-.15.1-.23a1.54,1.54,0,0,1,.08-.19q1.44-3.39,2.92-6.77c.43-1,1.06-1.4,1.79-1.1A1.45,1.45,0,0,1,36.66,22.51Z"/><path class="cls-1" d="M57.61,61.37H39.26a.7.7,0,0,1-.7-.62l-2-18.27a1.23,1.23,0,0,1,1.08-1.36h.13L58.86,41a1.23,1.23,0,0,1,1.23,1.23.66.66,0,0,1,0,.14L58,61A.4.4,0,0,1,57.61,61.37Z"/><rect class="cls-2" x="52.21" y="48.32" width="3.45" height="3.46" transform="translate(-19.59 52.8) rotate(-45)"/><rect class="cls-2" x="49.95" y="54.28" width="3.45" height="3.46" transform="translate(-24.47 52.95) rotate(-45)"/><path class="cls-2" d="M33.51,29.77a3.29,3.29,0,0,0-2.1-1.48l-.18,0a2.25,2.25,0,0,0-.63-.06,3.47,3.47,0,0,0-3.48,3.48,3.08,3.08,0,0,0,0,.43,1.55,1.55,0,0,0,0,.21,3.48,3.48,0,0,0,6.89-.69A3.39,3.39,0,0,0,33.51,29.77Zm-1.06,1.88A1.85,1.85,0,0,1,30.6,33.5a1.81,1.81,0,0,1-1-.3,1.85,1.85,0,0,1,1-3.4h.17a1.55,1.55,0,0,1,.77.24h0A1.85,1.85,0,0,1,32.45,31.65Z"/></g></g></svg>