<svg xmlns="http://www.w3.org/2000/svg" viewBox="0 0 122.62 122.62"><defs><style>.cls-1,.cls-3{fill:#191f6c;}.cls-2{fill:#fff;}.cls-3{fill-rule:evenodd;}</style></defs><title>Layer 1 (2)</title><g id="Layer_2" data-name="Layer 2"><g id="Layer_1-2" data-name="Layer 1"><path class="cls-1" d="M61.3,122.62a61.41,61.41,0,1,1,.05,0Zm40.24-32.88L32.79,20.94a49.28,49.28,0,0,1,74.07,21.38,48.84,48.84,0,0,1,3.73,18.86h0A48.88,48.88,0,0,1,101.54,89.74ZM23.86,29.12l69.5,69.54a49.32,49.32,0,0,1-69.5-69.54Z"/><path class="cls-2" d="M21.06,32.67l68.8,68.75A49.3,49.3,0,0,1,12,61.18h0A49.18,49.18,0,0,1,21.06,32.67ZM98.78,93.24,29.25,23.74a49.3,49.3,0,0,1,69.53,69.5Z"/><path class="cls-2" d="M23.86,29.12,93.35,98.66A49.31,49.31,0,0,1,23.86,29.12Zm77.68,60.62L32.78,20.94a49.32,49.32,0,0,1,77.83,40.24h0A49,49,0,0,1,101.54,89.74Z"/><path class="cls-3" d="M58.7,73.74A11.21,11.21,0,0,1,74,69.64a11,11,0,0,1,3.56,3.25l-19.39,11A11.19,11.19,0,0,1,58.7,73.74ZM44.77,37.33a11.09,11.09,0,0,1,15.09-4h0a11.07,11.07,0,0,1,4,15.09C57.62,59.25,51.36,70,45.08,80.89h0a11,11,0,0,1-15,4h0a11,11,0,0,1-4-15h0C32.36,59,38.52,48.22,44.81,37.33Zm32.36,7.24A11.2,11.2,0,0,1,96,43.74l-19.41,11a11.23,11.23,0,0,1,.55-10.14Zm19.73.72a11.21,11.21,0,0,1-19.46,11ZM52.56,64.5l-16.21-9-8.9,15.41h0a9.85,9.85,0,0,0-1,7.43c.65,2.43,2.22,3.86,4.54,5.21h0a8,8,0,0,0,6.69,1,9.77,9.77,0,0,0,6-4.55h0Zm25.92,10A11.2,11.2,0,0,1,59,85.48l19.46-11Z"/></g></g></svg>