<svg width="95" height="134" viewBox="0 0 95 134" fill="none" xmlns="http://www.w3.org/2000/svg">
<path d="M59.226 45.6026C59.146 48.8625 57.7948 51.9619 55.4609 54.2392C53.1271 56.5165 49.9954 57.7912 46.7346 57.7912C43.4737 57.7912 40.3421 56.5165 38.0082 54.2392C35.6743 51.9619 34.3232 48.8625 34.2432 45.6026C34.2432 38.7043 45.3767 19.5667 46.5804 19.5667C48.0849 19.5591 59.226 38.7043 59.226 45.6026Z" fill="#0F206F"/>
<path d="M76.3853 0H17.7836C13.0708 0.0119162 8.55436 1.88937 5.22186 5.22186C1.88937 8.55436 0.0119162 13.0708 0 17.7836L0 89.6929C0.0198447 96.3885 2.68844 102.804 7.42295 107.539C12.1574 112.273 18.5731 114.942 25.2687 114.962H34.2432V106.01C34.2432 103.519 35.2321 101.13 36.9925 99.3684C38.753 97.6065 41.1409 96.6157 43.6315 96.6137H50.5223C53.0142 96.6137 55.4041 97.6037 57.1662 99.3657C58.9282 101.128 59.9181 103.518 59.9181 106.01V114.962H68.667C75.4244 114.942 81.8994 112.249 86.6776 107.47C91.4559 102.692 94.149 96.2171 94.1689 89.4597V17.7836C94.157 13.0708 92.2795 8.55436 88.947 5.22186C85.6145 1.88937 81.0981 0.0119162 76.3853 0ZM30.5722 84.3367C30.5722 85.3223 30.1806 86.2676 29.4837 86.9645C28.7868 87.6614 27.8416 88.0529 26.856 88.0529H19.6191C18.6359 88.0432 17.6955 87.6488 16.9995 86.9541C16.3035 86.2595 15.9072 85.32 15.8954 84.3367V77.0999C15.9052 76.1154 16.3007 75.1739 16.9969 74.4777C17.6931 73.7815 18.6346 73.386 19.6191 73.3762H26.856C27.3446 73.3762 27.8285 73.4726 28.2798 73.6598C28.7312 73.847 29.1412 74.1214 29.4864 74.4673C29.8316 74.8132 30.1051 75.2237 30.2914 75.6755C30.4778 76.1272 30.5732 76.6113 30.5722 77.0999V84.3367ZM55.0359 84.3367C55.0359 85.3223 54.6444 86.2676 53.9475 86.9645C53.2505 87.6614 52.3053 88.0529 51.3197 88.0529H44.0754C43.0898 88.0529 42.1445 87.6614 41.4476 86.9645C40.7507 86.2676 40.3592 85.3223 40.3592 84.3367V77.0999C40.3582 76.6113 40.4536 76.1272 40.6399 75.6755C40.8262 75.2237 41.0998 74.8132 41.445 74.4673C41.7901 74.1214 42.2001 73.847 42.6515 73.6598C43.1029 73.4726 43.5867 73.3762 44.0754 73.3762H51.3197C51.8084 73.3762 52.2922 73.4726 52.7436 73.6598C53.1949 73.847 53.6049 74.1214 53.9501 74.4673C54.2953 74.8132 54.5689 75.2237 54.7552 75.6755C54.9415 76.1272 55.0369 76.6113 55.0359 77.0999V84.3367ZM78.2735 84.3367C78.2735 84.8286 78.1759 85.3155 77.9863 85.7694C77.7968 86.2232 77.519 86.6349 77.1691 86.9806C76.8192 87.3263 76.4042 87.599 75.9481 87.7831C75.492 87.9672 75.0039 88.0589 74.5121 88.0529H67.3129C66.3273 88.0529 65.3821 87.6614 64.6852 86.9645C63.9882 86.2676 63.5967 85.3223 63.5967 84.3367V77.0999C63.5957 76.6113 63.6911 76.1272 63.8774 75.6755C64.0638 75.2237 64.3373 74.8132 64.6825 74.4673C65.0277 74.1214 65.4377 73.847 65.8891 73.6598C66.3404 73.4726 66.8243 73.3762 67.3129 73.3762H74.5497C75.0422 73.3702 75.5309 73.4622 75.9875 73.6467C76.4441 73.8313 76.8594 74.1047 77.2094 74.4512C77.5594 74.7977 77.837 75.2103 78.0261 75.665C78.2152 76.1197 78.3121 76.6075 78.3111 77.0999L78.2735 84.3367ZM79.4921 64.8154H14.6767V14.6767H79.4921V64.8154Z" fill="#0F206F"/>
<path d="M50.477 101.511H42.4654C40.6248 101.511 39.1328 103.003 39.1328 104.844V129.977C39.1328 131.817 40.6248 133.309 42.4654 133.309H50.477C52.3175 133.309 53.8096 131.817 53.8096 129.977V104.844C53.8096 103.003 52.3175 101.511 50.477 101.511Z" fill="#0F206F"/>
<path d="M55.8787 44.6697C54.8857 49.9882 51.365 53.7872 48.0776 53.1703L55.8787 44.6697Z" fill="#0F206F"/>
<path d="M55.8787 44.6697C54.8857 49.9882 51.365 53.7872 48.0776 53.1703" stroke="white" stroke-miterlimit="10"/>
</svg>
