<svg width="39" height="39" viewBox="0 0 39 39" fill="none" xmlns="http://www.w3.org/2000/svg">
<g clip-path="url(#clip0_104_2520)">
<path d="M8.25 16.5C12.8063 16.5 16.5 12.8063 16.5 8.25C16.5 3.69365 12.8063 0 8.25 0C3.69365 0 0 3.69365 0 8.25C0 12.8063 3.69365 16.5 8.25 16.5Z" fill="#711E20"/>
<path d="M30.75 16.5C35.3063 16.5 39 12.8063 39 8.25C39 3.69365 35.3063 0 30.75 0C26.1937 0 22.5 3.69365 22.5 8.25C22.5 12.8063 26.1937 16.5 30.75 16.5Z" fill="#99282C"/>
<path d="M8.25 39C12.8063 39 16.5 35.3063 16.5 30.75C16.5 26.1937 12.8063 22.5 8.25 22.5C3.69365 22.5 0 26.1937 0 30.75C0 35.3063 3.69365 39 8.25 39Z" fill="#C42634"/>
<path d="M30.75 39C35.3063 39 39 35.3063 39 30.75C39 26.1937 35.3063 22.5 30.75 22.5C26.1937 22.5 22.5 26.1937 22.5 30.75C22.5 35.3063 26.1937 39 30.75 39Z" fill="#EE2A43"/>
</g>
<defs>
<clipPath id="clip0_104_2520">
<rect width="39" height="39" fill="white"/>
</clipPath>
</defs>
</svg>
