<svg width="100" height="149" viewBox="0 0 100 149" fill="none" xmlns="http://www.w3.org/2000/svg">
<g clip-path="url(#clip0_104_2182)">
<path d="M75.3395 78.0498C82.1933 81.0383 84.2191 84.6045 83.1257 91.7132C84.5034 91.8383 85.837 92.264 87.0326 92.9603C88.2282 93.6567 89.2567 94.6067 90.0458 95.7436C91.693 98.1116 91.9675 100.759 91.5036 103.62C94.7128 104.609 96.8854 106.646 98.7645 109.379C100.213 111.491 100.483 116.483 99.0721 118.183C92.3982 126.234 86.0746 134.83 77.2139 140.561C61.8638 150.506 45.7375 152.079 29.19 143.08C23.5716 140.021 19.5767 135.45 16.1451 130.193C11.4497 122.995 9.57529 114.972 9.84509 106.622C10.1102 98.4431 7.45005 91.5522 2.9203 85.0497C1.6154 83.2815 0.652213 81.285 0.0803311 79.1628C-0.260465 77.6851 0.340661 75.8476 0.894455 74.332C1.42074 72.8678 2.27902 71.5456 3.40193 70.4691C4.52484 69.3926 5.88182 68.5912 7.36635 68.1277C8.85089 67.6643 10.4226 67.5514 11.9581 67.7979C13.4935 68.0444 14.951 68.6437 16.2161 69.5487C19.9696 72.1866 22.5303 75.8618 24.9395 79.6838C26.1348 81.5097 27.4554 83.2505 28.8918 84.8934C29.9237 86.12 31.4099 86.139 32.7352 85.5422C34.5055 84.7466 36.3704 83.9462 37.8472 82.729C43.636 77.9551 49.42 73.1622 54.9532 68.0947C60.1172 63.3587 64.9499 58.2911 69.9388 53.3799C71.0133 52.3285 72.135 51.3244 73.2521 50.3157C77.4553 46.5269 84.2996 46.7637 88.1951 50.8272C89.1529 51.7971 89.9103 52.9463 90.424 54.2093C90.9377 55.4723 91.1975 56.8241 91.1888 58.1876C91.18 59.5511 90.9027 60.8995 90.3728 62.1558C89.8428 63.412 89.0707 64.5514 88.1004 65.5088C84.2475 69.4066 80.2479 73.1575 76.3145 76.9795C76.0163 77.2968 75.7323 77.6283 75.3395 78.0498ZM66.2658 103.719C65.9581 103.601 65.7309 103.496 65.4895 103.421C56.9696 100.735 54.655 91.6801 60.974 85.3765C64.8127 81.545 68.7744 77.8414 72.6415 74.0337C76.3808 70.3538 80.0633 66.6123 83.7694 62.8993C84.47 62.1984 85.3362 61.5921 85.819 60.7681C87.0401 58.6937 86.5432 55.5869 84.9575 54.3081C81.8714 51.817 78.8042 51.5755 76.4376 53.7777C74.1751 55.871 72.0357 58.097 69.811 60.2424C63.9607 65.8972 58.1908 71.642 52.2174 77.1642C46.244 82.6864 40.299 88.0902 32.366 90.6476C33.0571 95.7578 32.7116 98.3389 30.8703 101.848C29.6349 104.216 28.2244 104.936 26.6104 104.055C25.1667 103.269 25.1194 102.08 26.3642 99.6413C28.2812 95.8999 28.3049 92.2721 25.7442 88.7485C23.8509 86.1532 22.0017 83.5247 20.1968 80.863C18.3035 78.0214 16.3817 75.2366 13.343 73.418C11.0284 72.0303 9.24869 71.9451 7.18972 73.418C6.26302 74.0431 5.56707 74.9553 5.20878 76.0146C4.85049 77.0738 4.84968 78.2214 5.20647 79.2812C5.65979 80.5871 6.29734 81.8215 7.09978 82.9469C12.0129 90.1456 15.047 97.8275 14.8292 106.793C14.6282 113.856 16.3057 120.847 19.6903 127.049C22.9373 133.035 31.5235 135.659 37.246 131.988C40.0055 130.222 42.287 127.679 44.6678 125.358C45.747 124.316 46.7599 123.615 48.1184 124.6C49.4768 125.585 49.4058 126.85 48.497 128.091C44.3365 133.774 39.1914 137.847 31.8359 138.33C31.6418 138.33 31.4572 138.505 31.2016 138.633C46.0263 148.659 71.6996 144.904 84.3611 127.3C78.1321 124.515 76.9914 121.38 76.5181 116.36C68.817 115.014 65.7404 110.681 66.2658 103.719ZM61.6603 93.0441C62.0721 97.0365 66.422 100.418 69.2951 98.6373C72.1269 96.8869 74.7516 94.8215 77.1192 92.4805C77.6883 91.9468 78.1393 91.2997 78.4433 90.5809C78.7472 89.8621 78.8973 89.0877 78.884 88.3073C78.8706 87.527 78.694 86.7581 78.3656 86.0502C78.0372 85.3423 77.5642 84.7111 76.9772 84.1972C75.7859 83.1427 74.2355 82.5858 72.6459 82.6413C71.0563 82.6968 69.5486 83.3605 68.4336 84.4956C66.8041 85.9887 65.2571 87.5698 63.7997 89.2316C62.8957 90.3398 62.3703 91.7701 61.6698 93.0535L61.6603 93.0441ZM81.7483 96.1035C80.849 96.4872 79.855 96.724 79.0693 97.2923C76.9736 98.8035 74.9651 100.432 73.0533 102.17C72.2179 103.004 71.6269 104.051 71.3446 105.197C70.805 107.352 72.1729 109.791 74.2272 110.88C76.4755 112.05 78.0138 111.77 79.9544 109.852C81.5211 108.299 82.9885 106.627 84.6877 105.225C86.7561 103.511 87.4993 101.91 86.813 99.7266C86.1692 97.6238 84.3138 96.3688 81.7578 96.113L81.7483 96.1035ZM81.4123 116.805C81.4359 119.372 82.411 121.067 84.2759 122.014C85.9846 122.862 88.0625 123.435 89.6671 122.052C91.3843 120.56 92.8907 118.841 94.1448 116.942C96.2795 113.731 94.4241 109.336 90.699 108.313C89.5298 107.991 88.5501 108.109 87.6413 109.123C86.6425 110.236 85.3977 111.126 84.2996 112.154C82.7944 113.527 81.2466 114.891 81.4123 116.805Z" fill="#0F206F"/>
<path d="M65.9774 28.5488C65.9774 24.059 65.9774 19.5503 65.9774 15.0748C65.9774 13.0857 66.7773 12.0248 68.2541 11.9727C69.7308 11.9206 71.042 13.2325 71.0467 14.9611C71.094 24.0701 71.094 33.1774 71.0467 42.2832C71.0467 44.0024 69.6267 45.3048 68.2067 45.1722C66.4081 45.0017 65.9963 43.7514 65.9963 42.2075C65.9805 37.6577 65.9742 33.1048 65.9774 28.5488Z" fill="#0F206F"/>
<path d="M4.73349 30.7842C5.33433 31.074 5.90108 31.4298 6.42327 31.845C13.1856 38.4534 19.9399 45.0775 26.6864 51.7174C27.7751 52.783 28.2153 54.1233 27.084 55.1984C26.4971 55.762 25.1907 55.6436 24.2441 55.672C23.9648 55.672 23.6429 55.2505 23.3731 54.9853C16.7024 48.4622 10.0363 41.9233 3.37504 35.3686C1.85093 33.8626 1.79886 32.2571 3.17624 31.3525C3.67376 31.1085 4.19577 30.9179 4.73349 30.7842Z" fill="#0F206F"/>
<path d="M41.2506 30.4196C40.498 31.1063 39.8306 32.1245 38.9597 32.3992C37.6486 32.8065 36.6782 31.9256 36.3327 30.5901C35.2204 26.2471 34.1412 21.8995 33.0526 17.5518C31.8834 12.8963 30.6859 8.24552 29.5689 3.58054C29.0245 1.35934 30.0943 -0.36457 31.8314 0.066408C32.6597 0.265321 33.6915 1.14622 33.8951 1.89451C36.2617 10.9924 38.5242 20.1282 40.8009 29.2545C40.8502 29.5017 40.885 29.7516 40.9051 30.0028L41.2506 30.4196Z" fill="#0F206F"/>
<path d="M46.4807 42.8896C47.612 46.6785 49.8792 48.3787 53.8457 48.0993C50.5324 50.311 49.6378 53.0626 51.0767 56.7851C47.9054 53.773 44.8667 54.7771 41.6102 56.9746C41.7995 55.6343 41.6717 54.7486 42.0456 54.1945C43.4656 52.1154 42.0788 51.0782 40.673 50.0079C39.9747 49.5591 39.3677 48.9822 38.8838 48.3077C42.6988 48.1372 45.624 47.171 46.4807 42.8896Z" fill="#0F206F"/>
<path d="M48.1943 18.6789C50.3811 17.0734 51.4556 15.2643 50.2817 12.4558C52.6484 14.4213 54.8777 14.085 57.3816 12.6784C55.8433 15.4727 56.8089 17.3671 59.2749 18.9963C56.3687 18.9963 54.2245 19.7493 53.3299 22.7567C52.5395 20.1329 51.1195 18.6174 48.1943 18.6789Z" fill="#0F206F"/>
<path d="M17.7783 26.0152C17.7404 22.9889 16.1548 21.5112 13.2959 20.8766C16.1359 20.1046 17.5558 18.4518 17.3239 15.4302C19.0752 17.5614 21.0632 18.3097 23.728 17.1636C22.0193 19.4937 22.1945 21.6059 23.9316 23.794C21.2999 23.0457 19.293 23.543 17.7783 26.0152Z" fill="#0F206F"/>
<path d="M66.2661 103.719C65.7312 110.672 68.8078 115.005 76.5041 116.369C76.9775 121.389 78.1182 124.524 84.3472 127.309C71.6857 144.913 46.0076 148.669 31.1877 138.643C31.4433 138.515 31.6279 138.349 31.822 138.339C39.1775 137.866 44.3226 133.774 48.4831 128.1C49.3919 126.859 49.4298 125.581 48.1045 124.61C46.7791 123.639 45.7378 124.326 44.6539 125.367C42.2873 127.669 39.9916 130.212 37.2321 131.998C31.5096 135.668 22.9234 133.045 19.6764 127.058C16.2918 120.856 14.6142 113.866 14.8153 106.802C15.033 97.837 11.999 90.1551 7.08586 82.9564C6.28342 81.831 5.64586 80.5966 5.19255 79.2907C4.83298 78.2264 4.83429 77.0732 5.19627 76.0098C5.55825 74.9463 6.26069 74.032 7.19473 73.4086C9.24424 71.9404 11.024 72.0256 13.348 73.4086C16.3868 75.2272 18.2848 78.0262 20.2018 80.8536C22.0099 83.5121 23.859 86.1406 25.7492 88.7391C28.3099 92.2532 28.2862 95.881 26.3692 99.6319C25.1244 102.071 25.1717 103.26 26.6154 104.046C28.2342 104.927 29.6447 104.197 30.8753 101.839C32.7166 98.3295 33.0621 95.7484 32.371 90.6382C40.2993 88.0902 46.2916 82.6485 52.2129 77.1974C58.1343 71.7462 63.9562 65.9304 69.8065 60.2756C72.0217 58.1301 74.1612 55.9042 76.4331 53.8109C78.7998 51.6086 81.8906 51.8502 84.953 54.3413C86.5387 55.6201 87.0357 58.7269 85.8145 60.8013C85.3412 61.6253 84.4655 62.2221 83.765 62.9325C80.0588 66.6455 76.3764 70.387 72.6371 74.0669C68.77 77.8557 64.8082 81.5782 60.9695 85.4096C54.6506 91.7133 56.9462 100.769 65.4851 103.454C65.7407 103.506 65.9679 103.61 66.2661 103.719Z" fill="white"/>
<path d="M61.6699 93.0534C62.3704 91.7699 62.8958 90.3396 63.8094 89.2361C65.2668 87.5743 66.8137 85.9933 68.4433 84.5001C69.5582 83.3651 71.0659 82.7014 72.6556 82.6459C74.2452 82.5904 75.7955 83.1473 76.9868 84.2018C77.5739 84.7157 78.0468 85.3469 78.3752 86.0548C78.7036 86.7627 78.8802 87.5316 78.8936 88.3119C78.907 89.0922 78.7568 89.8667 78.4529 90.5855C78.1489 91.3042 77.6979 91.9513 77.1288 92.4851C74.7612 94.8261 72.1365 96.8915 69.3047 98.6419C66.4316 100.427 62.0817 97.0458 61.6699 93.0534Z" fill="white"/>
<path d="M81.758 96.113C84.3139 96.3688 86.1694 97.6238 86.8131 99.7124C87.4994 101.91 86.7563 103.501 84.6879 105.211C82.9981 106.632 81.5308 108.285 79.9546 109.838C78.0187 111.756 76.4756 112.036 74.2273 110.866C72.1731 109.8 70.8052 107.361 71.3448 105.183C71.6271 104.036 72.2181 102.99 73.0535 102.156C74.9653 100.418 76.9738 98.7893 79.0695 97.2781C79.8457 96.7335 80.8586 96.4967 81.758 96.113Z" fill="white"/>
<path d="M81.4123 116.805C81.2703 114.91 82.8323 113.527 84.2996 112.144C85.3978 111.117 86.6426 110.25 87.6413 109.113C88.5501 108.1 89.5346 107.981 90.699 108.304C94.4241 109.327 96.2796 113.722 94.1448 116.933C92.8907 118.831 91.3844 120.55 89.6672 122.043C88.0626 123.416 85.9847 122.853 84.276 122.005C82.3874 121.072 81.4123 119.372 81.4123 116.805Z" fill="white"/>
</g>
<defs>
<clipPath id="clip0_104_2182">
<rect width="100" height="149" fill="white"/>
</clipPath>
</defs>
</svg>
