<svg width="199" height="89" viewBox="0 0 199 89" fill="none" xmlns="http://www.w3.org/2000/svg">
<g clip-path="url(#clip0_104_2196)">
<path d="M56.4519 64.1836V0.933768H70.8001V88.8954C66.1235 88.8954 61.5091 89.2369 56.9639 88.7072C55.3312 88.5191 53.5048 86.519 52.5155 84.8883C41.1905 66.7691 30.0108 48.4896 18.7827 30.2799C17.6827 28.4889 16.5205 26.7397 14.6318 23.8057V88.4146H0V0.550477C4.84269 0.550477 9.45708 0.202031 13.9677 0.731669C15.5865 0.926799 17.3438 3.0105 18.3676 4.6482C29.8794 23.1089 41.2597 41.6462 52.6885 60.1556C53.574 61.5982 54.5356 62.9919 55.4557 64.4066L56.4519 64.1836Z" fill="#0F206F"/>
<path d="M91.7896 88.5052V0C107.597 0.585389 123.246 0.202098 138.632 2.04189C150.206 3.43567 158.453 11.3663 162.714 22.5026C168.249 36.8795 168.394 51.5281 162.984 65.9468C157.574 80.3655 146.706 87.8083 131.624 88.3658C118.521 88.8606 105.377 88.5052 91.7896 88.5052ZM106.85 76.4281C114.024 76.4281 120.597 76.7835 127.127 76.3584C140.998 75.4106 149.431 67.8075 150.815 54.1833C151.507 47.1726 151.036 39.9319 150.234 32.8933C149.155 23.4016 143.274 16.8648 134.281 14.9832C125.446 13.1573 116.197 13.3803 106.878 12.6904L106.85 76.4281Z" fill="#0F206F"/>
<path d="M184.604 0.794434H199V88.6027H184.604V0.794434Z" fill="#0F206F"/>
<path d="M106.851 76.3933V12.6904C116.169 13.3873 125.419 13.1573 134.253 14.9832C143.247 16.8369 149.127 23.4017 150.207 32.8933C151.009 39.9319 151.507 47.1726 150.788 54.1833C149.404 67.8076 140.998 75.4107 127.128 76.3236C120.597 76.7487 114.025 76.3933 106.851 76.3933Z" fill="white"/>
</g>
<defs>
<clipPath id="clip0_104_2196">
<rect width="199" height="89" fill="white"/>
</clipPath>
</defs>
</svg>
