<?xml version="1.0" encoding="UTF-8"?> <svg xmlns="http://www.w3.org/2000/svg" width="143" height="90" viewBox="0 0 143 90" fill="none"> <path d="M52.9307 19.3V69H45.3337L17.9277 35.346V69H8.76873V19.3H16.3657L43.7717 52.954V19.3H52.9307ZM66.2482 19.3H87.9742C93.2756 19.3 97.9852 20.3413 102.103 22.424C106.221 24.4593 109.416 27.3703 111.688 31.157C113.96 34.8963 115.096 39.2273 115.096 44.15C115.096 49.0727 113.96 53.4273 111.688 57.214C109.416 60.9533 106.221 63.8643 102.103 65.947C97.9852 67.9823 93.2756 69 87.9742 69H66.2482V19.3ZM87.5482 61.19C91.1929 61.19 94.3879 60.5037 97.1332 59.131C99.9259 57.711 102.056 55.723 103.523 53.167C105.038 50.5637 105.795 47.558 105.795 44.15C105.795 40.742 105.038 37.76 103.523 35.204C102.056 32.6007 99.9259 30.6127 97.1332 29.24C94.3879 27.82 91.1929 27.11 87.5482 27.11H75.4782V61.19H87.5482ZM124.906 19.3H134.136V69H124.906V19.3Z" fill="#0F206C"></path> <path d="M14.6806 78.2727V87H13.905L8.74876 79.6918H8.68058V87H7.8837V78.2727H8.65501L13.8283 85.5895H13.8965V78.2727H14.6806ZM19.4895 87.1364C18.8787 87.1364 18.3503 86.9943 17.9043 86.7102C17.4583 86.4233 17.1131 86.027 16.8688 85.5213C16.6273 85.0128 16.5066 84.4276 16.5066 83.7656C16.5066 83.1065 16.6273 82.5213 16.8688 82.0099C17.1131 81.4957 17.4498 81.0937 17.8787 80.804C18.3105 80.5114 18.8091 80.3651 19.3745 80.3651C19.7296 80.3651 20.0719 80.4304 20.4015 80.5611C20.731 80.6889 21.0265 80.8864 21.2878 81.1534C21.552 81.4176 21.7608 81.7514 21.9142 82.1548C22.0676 82.5554 22.1444 83.0298 22.1444 83.5781V83.9531H17.0307V83.2841H21.3688C21.3688 82.8636 21.2836 82.4858 21.1131 82.1506C20.9455 81.8125 20.7111 81.5455 20.41 81.3494C20.1117 81.1534 19.7665 81.0554 19.3745 81.0554C18.9597 81.0554 18.5946 81.1662 18.2793 81.3878C17.964 81.6094 17.7168 81.902 17.5378 82.2656C17.3617 82.6293 17.2722 83.027 17.2694 83.4588V83.8594C17.2694 84.3793 17.3588 84.8338 17.5378 85.223C17.7196 85.6094 17.9767 85.9091 18.3091 86.1222C18.6415 86.3352 19.035 86.4418 19.4895 86.4418C19.7992 86.4418 20.0705 86.3935 20.3034 86.2969C20.5392 86.2003 20.7367 86.071 20.8958 85.9091C21.0577 85.7443 21.1799 85.5639 21.2623 85.3679L21.9824 85.6023C21.883 85.8778 21.7196 86.1321 21.4924 86.3651C21.2679 86.598 20.9867 86.7855 20.6486 86.9276C20.3134 87.0668 19.927 87.1364 19.4895 87.1364ZM25.269 87L23.2917 80.4545H24.0929L25.644 85.8537H25.6994L27.2463 80.4545H28.0517L29.5858 85.8409H29.6454L31.1966 80.4545H31.9977L30.0204 87H29.2363L27.6852 81.6349H27.6042L26.0531 87H25.269ZM39.5616 87H37.0048V78.2727H39.715C40.5474 78.2727 41.2591 78.446 41.85 78.7926C42.4437 79.1392 42.8983 79.6364 43.2136 80.2841C43.5289 80.9318 43.6866 81.7088 43.6866 82.6151C43.6866 83.5298 43.5247 84.3153 43.2008 84.9716C42.8798 85.625 42.411 86.1264 41.7946 86.4759C41.1809 86.8253 40.4366 87 39.5616 87ZM37.8017 86.2841H39.5147C40.2647 86.2841 40.8926 86.1364 41.3983 85.8409C41.9039 85.5455 42.2832 85.1236 42.536 84.5753C42.7889 84.027 42.9153 83.3736 42.9153 82.6151C42.9125 81.8622 42.7875 81.2145 42.5403 80.6719C42.296 80.1293 41.9324 79.7131 41.4494 79.4233C40.9693 79.1335 40.3755 78.9886 39.6681 78.9886H37.8017V86.2841ZM45.4689 87V80.4545H46.2317V87H45.4689ZM45.8567 79.3295C45.7005 79.3295 45.5669 79.277 45.4561 79.1719C45.3453 79.0639 45.29 78.9347 45.29 78.7841C45.29 78.6335 45.3453 78.5057 45.4561 78.4006C45.5669 78.2926 45.7005 78.2386 45.8567 78.2386C46.013 78.2386 46.1465 78.2926 46.2573 78.4006C46.3681 78.5057 46.4235 78.6335 46.4235 78.7841C46.4235 78.9347 46.3681 79.0639 46.2573 79.1719C46.1465 79.277 46.013 79.3295 45.8567 79.3295ZM50.8841 87.1364C50.2733 87.1364 49.7449 86.9943 49.2988 86.7102C48.8528 86.4233 48.5076 86.027 48.2633 85.5213C48.0218 85.0128 47.9011 84.4276 47.9011 83.7656C47.9011 83.1065 48.0218 82.5213 48.2633 82.0099C48.5076 81.4957 48.8443 81.0937 49.2733 80.804C49.7051 80.5114 50.2037 80.3651 50.769 80.3651C51.1241 80.3651 51.4664 80.4304 51.796 80.5611C52.1255 80.6889 52.421 80.8864 52.6824 81.1534C52.9466 81.4176 53.1554 81.7514 53.3088 82.1548C53.4622 82.5554 53.5389 83.0298 53.5389 83.5781V83.9531H48.4252V83.2841H52.7633C52.7633 82.8636 52.6781 82.4858 52.5076 82.1506C52.34 81.8125 52.1056 81.5455 51.8045 81.3494C51.5062 81.1534 51.161 81.0554 50.769 81.0554C50.3542 81.0554 49.9892 81.1662 49.6738 81.3878C49.3585 81.6094 49.1113 81.902 48.9324 82.2656C48.7562 82.6293 48.6667 83.027 48.6639 83.4588V83.8594C48.6639 84.3793 48.7534 84.8338 48.9324 85.223C49.1142 85.6094 49.3713 85.9091 49.7037 86.1222C50.036 86.3352 50.4295 86.4418 50.8841 86.4418C51.1937 86.4418 51.465 86.3935 51.698 86.2969C51.9338 86.2003 52.1312 86.071 52.2903 85.9091C52.4522 85.7443 52.5744 85.5639 52.6568 85.3679L53.377 85.6023C53.2775 85.8778 53.1142 86.1321 52.8869 86.3651C52.6625 86.598 52.3812 86.7855 52.0431 86.9276C51.7079 87.0668 51.3216 87.1364 50.8841 87.1364ZM57.7885 80.4545V81.1151H54.665V80.4545H57.7885ZM55.6408 78.8864H56.4036V85.2912C56.4036 85.5639 56.4505 85.7784 56.5442 85.9347C56.638 86.0881 56.7601 86.1974 56.9107 86.2628C57.0613 86.3253 57.2218 86.3565 57.3922 86.3565C57.4917 86.3565 57.5769 86.3509 57.6479 86.3395C57.7189 86.3253 57.7814 86.3111 57.8354 86.2969L57.9973 86.983C57.9235 87.0114 57.8326 87.0369 57.7246 87.0597C57.6167 87.0852 57.4831 87.098 57.324 87.098C57.0456 87.098 56.7772 87.0369 56.5186 86.9148C56.263 86.7926 56.0527 86.6108 55.888 86.3693C55.7232 86.1278 55.6408 85.8281 55.6408 85.4702V78.8864ZM61.3393 87.1491C60.9444 87.1491 60.5836 87.0724 60.2569 86.919C59.9302 86.7628 59.6703 86.5384 59.4771 86.2457C59.2839 85.9503 59.1873 85.5923 59.1873 85.1719C59.1873 84.848 59.2484 84.5753 59.3706 84.3537C59.4927 84.1321 59.666 83.9503 59.8904 83.8082C60.1149 83.6662 60.3805 83.554 60.6873 83.4716C60.9941 83.3892 61.3322 83.3253 61.7015 83.2798C62.068 83.2344 62.3777 83.1946 62.6305 83.1605C62.8862 83.1264 63.0808 83.0724 63.2143 82.9986C63.3478 82.9247 63.4146 82.8054 63.4146 82.6406V82.4872C63.4146 82.0412 63.2811 81.6903 63.014 81.4347C62.7498 81.1761 62.3691 81.0469 61.872 81.0469C61.4004 81.0469 61.0154 81.1506 60.7172 81.358C60.4217 81.5653 60.2143 81.8097 60.095 82.0909L59.3748 81.831C59.5225 81.473 59.7271 81.1875 59.9885 80.9744C60.2498 80.7585 60.5424 80.6037 60.8663 80.5099C61.1902 80.4134 61.5183 80.3651 61.8507 80.3651C62.1007 80.3651 62.3606 80.3977 62.6305 80.4631C62.9032 80.5284 63.1561 80.642 63.389 80.804C63.622 80.9631 63.8109 81.1861 63.9558 81.473C64.1007 81.7571 64.1731 82.1179 64.1731 82.5554V87H63.4146V85.9645H63.3677C63.2768 86.1577 63.1419 86.3452 62.9629 86.527C62.7839 86.7088 62.5595 86.858 62.2896 86.9744C62.0197 87.0909 61.7029 87.1491 61.3393 87.1491ZM61.4416 86.4545C61.845 86.4545 62.1944 86.3651 62.4899 86.1861C62.7853 86.0071 63.0126 85.7699 63.1717 85.4744C63.3336 85.1761 63.4146 84.848 63.4146 84.4901V83.544C63.3578 83.598 63.2626 83.6463 63.1291 83.6889C62.9984 83.7315 62.8464 83.7699 62.6731 83.804C62.5027 83.8352 62.3322 83.8622 62.1618 83.8849C61.9913 83.9077 61.8379 83.9276 61.7015 83.9446C61.3322 83.9901 61.0169 84.0611 60.7555 84.1577C60.4941 84.2543 60.2939 84.3878 60.1547 84.5582C60.0154 84.7259 59.9458 84.9418 59.9458 85.206C59.9458 85.6037 60.0879 85.9119 60.372 86.1307C60.6561 86.3466 61.0126 86.4545 61.4416 86.4545ZM66.1909 87V80.4545H66.9281V81.4602H66.9835C67.1142 81.1307 67.3414 80.8651 67.6653 80.6634C67.992 80.4588 68.3613 80.3565 68.7733 80.3565C68.8358 80.3565 68.9054 80.358 68.9821 80.3608C69.0588 80.3636 69.1227 80.3665 69.1738 80.3693V81.1406C69.1397 81.1349 69.0801 81.1264 68.9949 81.1151C68.9096 81.1037 68.8173 81.098 68.7179 81.098C68.377 81.098 68.073 81.1705 67.8059 81.3153C67.5417 81.4574 67.3329 81.6548 67.1795 81.9077C67.0261 82.1605 66.9494 82.4489 66.9494 82.7727V87H66.1909ZM71.1958 89.4545C71.0453 89.4545 70.9047 89.4403 70.774 89.4119C70.6433 89.3835 70.5396 89.3523 70.4629 89.3182L70.6674 88.6491C70.926 88.7287 71.1561 88.7571 71.3578 88.7344C71.5595 88.7145 71.7385 88.6236 71.8947 88.4616C72.051 88.3026 72.1902 88.0582 72.3123 87.7287L72.551 87.0639L70.1433 80.4545H70.9657L72.9089 85.9986H72.9686L74.9118 80.4545H75.7342L72.9643 88.0355C72.8478 88.3509 72.7044 88.6136 72.5339 88.8239C72.3635 89.0369 72.166 89.1946 71.9416 89.2969C71.72 89.402 71.4714 89.4545 71.1958 89.4545ZM81.5478 78.2727V87H80.7509V78.2727H81.5478ZM84.4689 82.9091V87H83.7104V80.4545H84.4476V81.4815H84.5158C84.6692 81.1463 84.9078 80.8778 85.2317 80.6761C85.5584 80.4716 85.9618 80.3693 86.4419 80.3693C86.8823 80.3693 87.2686 80.4616 87.601 80.6463C87.9363 80.8281 88.1962 81.0966 88.3809 81.4517C88.5684 81.8068 88.6621 82.2429 88.6621 82.7599V87H87.9036V82.8068C87.9036 82.2699 87.753 81.8452 87.4519 81.5327C87.1536 81.2202 86.753 81.0639 86.2502 81.0639C85.9064 81.0639 85.601 81.1378 85.334 81.2855C85.0669 81.4332 84.8553 81.6463 84.699 81.9247C84.5456 82.2003 84.4689 82.5284 84.4689 82.9091ZM93.1568 89.5909C92.7108 89.5909 92.3201 89.5327 91.9849 89.4162C91.6497 89.3026 91.367 89.1463 91.1369 88.9474C90.9068 88.7486 90.7278 88.5256 90.6 88.2784L91.2221 87.8693C91.3159 88.0341 91.4409 88.196 91.5971 88.3551C91.7562 88.5142 91.9622 88.6463 92.215 88.7514C92.4707 88.8565 92.7846 88.9091 93.1568 88.9091C93.7363 88.9091 94.2037 88.7642 94.5588 88.4744C94.9167 88.1847 95.0957 87.7344 95.0957 87.1236V85.6491H95.0275C94.9395 85.848 94.813 86.0469 94.6483 86.2457C94.4835 86.4418 94.2676 86.6051 94.0005 86.7358C93.7363 86.8665 93.4082 86.9318 93.0162 86.9318C92.4934 86.9318 92.0289 86.8026 91.6227 86.544C91.2193 86.2855 90.9011 85.9162 90.6681 85.4361C90.438 84.9531 90.323 84.3778 90.323 83.7102C90.323 83.0483 90.4352 82.4659 90.6596 81.9631C90.8869 81.4602 91.2037 81.0682 91.6099 80.7869C92.0162 80.5057 92.4892 80.3651 93.0289 80.3651C93.4295 80.3651 93.7619 80.4361 94.0261 80.5781C94.2903 80.7173 94.502 80.8906 94.661 81.098C94.823 81.3054 94.9494 81.5071 95.0403 81.7031H95.117V80.4545H95.8585V87.1705C95.8585 87.7244 95.7406 88.1804 95.5048 88.5384C95.269 88.8963 94.948 89.1605 94.5417 89.331C94.1355 89.5043 93.6738 89.5909 93.1568 89.5909ZM93.1056 86.2372C93.5261 86.2372 93.8855 86.1364 94.1838 85.9347C94.4821 85.7301 94.7108 85.4375 94.8699 85.0568C95.0289 84.6761 95.1085 84.223 95.1085 83.6974C95.1085 83.1861 95.0304 82.733 94.8741 82.3381C94.7179 81.9403 94.4906 81.6278 94.1923 81.4006C93.8968 81.1705 93.5346 81.0554 93.1056 81.0554C92.6681 81.0554 92.2988 81.1733 91.9977 81.4091C91.6966 81.6449 91.4693 81.9631 91.3159 82.3636C91.1625 82.7614 91.0858 83.206 91.0858 83.6974C91.0858 84.1974 91.1639 84.6392 91.3201 85.0227C91.4764 85.4034 91.7051 85.7017 92.0062 85.9176C92.3074 86.1307 92.6738 86.2372 93.1056 86.2372ZM97.8667 87V80.4545H98.6039V81.4602H98.6593C98.79 81.1307 99.0172 80.8651 99.3411 80.6634C99.6678 80.4588 100.037 80.3565 100.449 80.3565C100.512 80.3565 100.581 80.358 100.658 80.3608C100.735 80.3636 100.798 80.3665 100.85 80.3693V81.1406C100.816 81.1349 100.756 81.1264 100.671 81.1151C100.585 81.1037 100.493 81.098 100.394 81.098C100.053 81.098 99.7488 81.1705 99.4817 81.3153C99.2175 81.4574 99.0087 81.6548 98.8553 81.9077C98.7019 82.1605 98.6252 82.4489 98.6252 82.7727V87H97.8667ZM104.591 87.1364C103.98 87.1364 103.452 86.9943 103.006 86.7102C102.56 86.4233 102.215 86.027 101.97 85.5213C101.729 85.0128 101.608 84.4276 101.608 83.7656C101.608 83.1065 101.729 82.5213 101.97 82.0099C102.215 81.4957 102.551 81.0937 102.98 80.804C103.412 80.5114 103.911 80.3651 104.476 80.3651C104.831 80.3651 105.173 80.4304 105.503 80.5611C105.833 80.6889 106.128 80.8864 106.389 81.1534C106.654 81.4176 106.862 81.7514 107.016 82.1548C107.169 82.5554 107.246 83.0298 107.246 83.5781V83.9531H102.132V83.2841H106.47C106.47 82.8636 106.385 82.4858 106.215 82.1506C106.047 81.8125 105.813 81.5455 105.512 81.3494C105.213 81.1534 104.868 81.0554 104.476 81.0554C104.061 81.0554 103.696 81.1662 103.381 81.3878C103.066 81.6094 102.818 81.902 102.639 82.2656C102.463 82.6293 102.374 83.027 102.371 83.4588V83.8594C102.371 84.3793 102.46 84.8338 102.639 85.223C102.821 85.6094 103.078 85.9091 103.411 86.1222C103.743 86.3352 104.137 86.4418 104.591 86.4418C104.901 86.4418 105.172 86.3935 105.405 86.2969C105.641 86.2003 105.838 86.071 105.997 85.9091C106.159 85.7443 106.281 85.5639 106.364 85.3679L107.084 85.6023C106.985 85.8778 106.821 86.1321 106.594 86.3651C106.369 86.598 106.088 86.7855 105.75 86.9276C105.415 87.0668 105.029 87.1364 104.591 87.1364ZM111.274 87.1364C110.737 87.1364 110.267 86.9943 109.863 86.7102C109.46 86.4261 109.145 86.0298 108.917 85.5213C108.693 85.0128 108.581 84.4205 108.581 83.7443C108.581 83.071 108.693 82.4815 108.917 81.9759C109.145 81.4673 109.461 81.0724 109.868 80.7912C110.274 80.5071 110.747 80.3651 111.287 80.3651C111.684 80.3651 112.015 80.4361 112.28 80.5781C112.544 80.7173 112.756 80.8906 112.915 81.098C113.074 81.3054 113.197 81.5071 113.285 81.7031H113.354V78.2727H114.116V87H113.375V85.7855H113.285C113.197 85.9844 113.072 86.1889 112.91 86.3991C112.748 86.6065 112.534 86.7812 112.267 86.9233C112.003 87.0653 111.672 87.1364 111.274 87.1364ZM111.363 86.4418C111.787 86.4418 112.148 86.3267 112.446 86.0966C112.744 85.8636 112.971 85.544 113.128 85.1378C113.287 84.7287 113.366 84.2599 113.366 83.7315C113.366 83.2088 113.288 82.7472 113.132 82.3466C112.976 81.9432 112.748 81.6278 112.45 81.4006C112.152 81.1705 111.79 81.0554 111.363 81.0554C110.926 81.0554 110.557 81.1747 110.256 81.4134C109.957 81.6491 109.73 81.9687 109.574 82.3722C109.42 82.7756 109.344 83.2287 109.344 83.7315C109.344 84.2401 109.422 84.6989 109.578 85.108C109.734 85.517 109.961 85.8423 110.26 86.0838C110.561 86.3224 110.929 86.4418 111.363 86.4418ZM116.285 87V80.4545H117.048V87H116.285ZM116.673 79.3295C116.517 79.3295 116.383 79.277 116.273 79.1719C116.162 79.0639 116.106 78.9347 116.106 78.7841C116.106 78.6335 116.162 78.5057 116.273 78.4006C116.383 78.2926 116.517 78.2386 116.673 78.2386C116.829 78.2386 116.963 78.2926 117.074 78.4006C117.184 78.5057 117.24 78.6335 117.24 78.7841C117.24 78.9347 117.184 79.0639 117.074 79.1719C116.963 79.277 116.829 79.3295 116.673 79.3295ZM121.7 87.1364C121.09 87.1364 120.561 86.9943 120.115 86.7102C119.669 86.4233 119.324 86.027 119.08 85.5213C118.838 85.0128 118.718 84.4276 118.718 83.7656C118.718 83.1065 118.838 82.5213 119.08 82.0099C119.324 81.4957 119.661 81.0937 120.09 80.804C120.521 80.5114 121.02 80.3651 121.585 80.3651C121.941 80.3651 122.283 80.4304 122.612 80.5611C122.942 80.6889 123.237 80.8864 123.499 81.1534C123.763 81.4176 123.972 81.7514 124.125 82.1548C124.279 82.5554 124.355 83.0298 124.355 83.5781V83.9531H119.242V83.2841H123.58C123.58 82.8636 123.494 82.4858 123.324 82.1506C123.156 81.8125 122.922 81.5455 122.621 81.3494C122.323 81.1534 121.977 81.0554 121.585 81.0554C121.171 81.0554 120.806 81.1662 120.49 81.3878C120.175 81.6094 119.928 81.902 119.749 82.2656C119.573 82.6293 119.483 83.027 119.48 83.4588V83.8594C119.48 84.3793 119.57 84.8338 119.749 85.223C119.931 85.6094 120.188 85.9091 120.52 86.1222C120.852 86.3352 121.246 86.4418 121.7 86.4418C122.01 86.4418 122.281 86.3935 122.514 86.2969C122.75 86.2003 122.948 86.071 123.107 85.9091C123.269 85.7443 123.391 85.5639 123.473 85.3679L124.193 85.6023C124.094 85.8778 123.931 86.1321 123.703 86.3651C123.479 86.598 123.198 86.7855 122.86 86.9276C122.524 87.0668 122.138 87.1364 121.7 87.1364ZM126.785 82.9091V87H126.027V80.4545H126.764V81.4815H126.832C126.986 81.1463 127.224 80.8778 127.548 80.6761C127.875 80.4716 128.278 80.3693 128.758 80.3693C129.199 80.3693 129.585 80.4616 129.917 80.6463C130.253 80.8281 130.513 81.0966 130.697 81.4517C130.885 81.8068 130.979 82.2429 130.979 82.7599V87H130.22V82.8068C130.22 82.2699 130.069 81.8452 129.768 81.5327C129.47 81.2202 129.069 81.0639 128.567 81.0639C128.223 81.0639 127.917 81.1378 127.65 81.2855C127.383 81.4332 127.172 81.6463 127.015 81.9247C126.862 82.2003 126.785 82.5284 126.785 82.9091ZM135.554 80.4545V81.1151H132.431V80.4545H135.554ZM133.406 78.8864H134.169V85.2912C134.169 85.5639 134.216 85.7784 134.31 85.9347C134.404 86.0881 134.526 86.1974 134.676 86.2628C134.827 86.3253 134.987 86.3565 135.158 86.3565C135.257 86.3565 135.343 86.3509 135.414 86.3395C135.485 86.3253 135.547 86.3111 135.601 86.2969L135.763 86.983C135.689 87.0114 135.598 87.0369 135.49 87.0597C135.382 87.0852 135.249 87.098 135.09 87.098C134.811 87.098 134.543 87.0369 134.284 86.9148C134.029 86.7926 133.818 86.6108 133.654 86.3693C133.489 86.1278 133.406 85.8281 133.406 85.4702V78.8864Z" fill="#0F206C"></path> </svg> 