<svg width="144" height="159" viewBox="0 0 144 159" fill="none" xmlns="http://www.w3.org/2000/svg">
<path d="M71.7901 49.885C77.3708 49.885 81.8947 45.361 81.8947 39.7804C81.8947 34.1998 77.3708 29.6758 71.7901 29.6758C66.2095 29.6758 61.6855 34.1998 61.6855 39.7804C61.6855 45.361 66.2095 49.885 71.7901 49.885Z" fill="#0F206F"/>
<path d="M37.4535 15.6766L36.7578 14.0811L47.8975 9.22353L48.5932 10.8191L43.9227 12.8557L49.7037 26.1131L47.9051 26.8974L42.1241 13.64L37.4535 15.6766Z" fill="#0F206F"/>
<path d="M49.4134 8.89349L51.6085 8.41328L57.6151 14.8419L57.8006 14.8013L60.5743 6.45186L62.7694 5.97165L59.0856 16.5288L60.5127 23.0522L58.5959 23.4715L57.1688 16.9481L49.4134 8.89349Z" fill="#0F206F"/>
<path d="M66.1121 22.1578L65.8746 5.95594L71.349 5.87567C72.6201 5.85704 73.6624 6.07123 74.4761 6.51824C75.2949 6.9599 75.9052 7.56551 76.3068 8.33507C76.7085 9.10464 76.9163 9.96672 76.9303 10.9213C76.9443 11.8759 76.7619 12.7464 76.383 13.5327C76.0095 14.3189 75.4226 14.9499 74.6225 15.4259C73.8223 15.8966 72.792 16.1411 71.5315 16.1596L67.6076 16.2171L67.582 14.4767L71.4427 14.4201C72.3129 14.4073 73.0095 14.2468 73.5325 13.9384C74.0555 13.6301 74.4319 13.2184 74.6617 12.7033C74.8968 12.1829 75.0095 11.5983 75 10.9496C74.9905 10.3009 74.8607 9.72255 74.6106 9.21452C74.3657 8.70642 73.9749 8.31124 73.4379 8.02897C72.9009 7.74144 72.192 7.60413 71.3113 7.61704L67.862 7.66761L68.0741 22.1291L66.1121 22.1578Z" fill="#0F206F"/>
<path d="M77.953 22.4065L80.8696 6.52694L90.4532 8.28719L90.1399 9.993L82.4792 8.58595L81.4937 13.9515L88.6581 15.2674L88.3448 16.9732L81.1804 15.6573L80.1892 21.0539L87.9739 22.4837L87.6606 24.1895L77.953 22.4065Z" fill="#0F206F"/>
<path d="M93.7432 26.444L94.3841 25.1765L101.779 22.3726C102.646 22.0447 103.374 21.7469 103.964 21.479C104.555 21.2064 105.039 20.9145 105.414 20.6033C105.797 20.2898 106.1 19.9124 106.323 19.4711C106.579 18.9641 106.679 18.4635 106.623 17.9692C106.571 17.4773 106.387 17.0247 106.071 16.6116C105.755 16.1985 105.337 15.8602 104.816 15.5968C104.262 15.3167 103.72 15.1872 103.191 15.2084C102.668 15.2272 102.191 15.3839 101.76 15.6783C101.332 15.9752 100.98 16.3983 100.702 16.9475L99.0404 16.1073C99.4677 15.2623 100.038 14.619 100.75 14.1776C101.462 13.7362 102.244 13.5068 103.096 13.4894C103.953 13.4744 104.801 13.6794 105.641 14.1043C106.486 14.5315 107.145 15.0885 107.617 15.7752C108.089 16.4619 108.357 17.2018 108.422 17.9949C108.487 18.788 108.332 19.5554 107.957 20.2971C107.688 20.8276 107.33 21.2976 106.881 21.7073C106.439 22.1147 105.827 22.5095 105.044 22.8918C104.269 23.2718 103.243 23.6965 101.968 24.166L96.9776 25.9927L96.9207 26.1054L103.624 29.4949L102.841 31.044L93.7432 26.444Z" fill="#0F206F"/>
<path d="M24.1692 139.351L20.369 136.101L30.9013 123.786L34.87 127.181C36.0646 128.202 36.8759 129.323 37.3041 130.543C37.7356 131.759 37.7854 133.02 37.4532 134.325C37.1245 135.626 36.415 136.914 35.3247 138.189C34.2276 139.472 33.0546 140.381 31.8056 140.916C30.56 141.447 29.2878 141.588 27.9887 141.337C26.6931 141.083 25.42 140.421 24.1692 139.351ZM22.9916 136.054L25.2044 137.946C26.2226 138.817 27.2345 139.342 28.2399 139.522C29.2454 139.702 30.2227 139.569 31.172 139.125C32.1213 138.68 33.0245 137.957 33.8816 136.955C34.7319 135.961 35.3015 134.966 35.5905 133.971C35.8829 132.972 35.871 132.003 35.5547 131.067C35.2419 130.126 34.6044 129.244 33.6423 128.421L31.2612 126.385L22.9916 136.054Z" fill="#0F206F"/>
<path d="M43.5865 133.425L35.6468 147.523L33.9397 146.561L41.8795 132.464L43.5865 133.425Z" fill="#0F206F"/>
<path d="M45.1455 152.114L43.1912 151.456L54.0287 137.966L55.9528 138.614L56.42 155.912L54.4657 155.253L54.2306 140.746L54.1103 140.705L45.1455 152.114ZM47.8925 146.344L55.7696 148.997L55.2126 150.651L47.3355 147.997L47.8925 146.344Z" fill="#0F206F"/>
<path d="M59.863 156.303L61.6242 140.196L67.2556 140.811C68.3777 140.934 69.2819 141.229 69.9683 141.697C70.6553 142.16 71.1415 142.735 71.427 143.425C71.713 144.108 71.813 144.844 71.727 145.63C71.6514 146.322 71.4656 146.88 71.1699 147.304C70.8794 147.729 70.5206 148.05 70.0934 148.269C69.6715 148.488 69.2229 148.635 68.7478 148.711L68.7306 148.868C69.22 148.954 69.6966 149.181 70.1603 149.55C70.624 149.919 70.9916 150.415 71.2629 151.039C71.5343 151.663 71.6235 152.4 71.5307 153.249C71.4424 154.057 71.1794 154.763 70.7419 155.368C70.3043 155.973 69.669 156.421 68.836 156.711C68.003 157.002 66.952 157.079 65.6831 156.94L59.863 156.303ZM62.0027 154.786L65.8723 155.209C67.1465 155.349 68.0779 155.201 68.6666 154.767C69.2611 154.328 69.5971 153.754 69.6745 153.046C69.7341 152.501 69.6502 151.983 69.4228 151.491C69.1959 150.994 68.8407 150.578 68.3573 150.244C67.8744 149.905 67.2816 149.697 66.579 149.62L62.615 149.186L62.0027 154.786ZM62.8008 147.488L66.4187 147.883C67.006 147.947 67.5482 147.89 68.0453 147.711C68.5477 147.532 68.9607 147.248 69.2845 146.859C69.6135 146.471 69.809 145.993 69.8709 145.427C69.9483 144.719 69.7675 144.092 69.3285 143.545C68.8901 142.993 68.1361 142.659 67.0664 142.542L63.3856 142.139L62.8008 147.488Z" fill="#0F206F"/>
<path d="M75.7626 157.177L74.1422 140.973L83.9214 139.995L84.0954 141.736L76.2784 142.517L76.8259 147.992L84.1366 147.261L84.3106 149.002L77 149.733L77.5507 155.24L85.4942 154.445L85.6683 156.186L75.7626 157.177Z" fill="#0F206F"/>
<path d="M85.0082 141.547L84.5034 139.876L96.1701 136.352L96.6748 138.023L91.7834 139.501L95.9776 153.385L94.094 153.954L89.8997 140.07L85.0082 141.547Z" fill="#0F206F"/>
<path d="M103.63 150.462L96.0301 136.151L104.667 131.565L105.483 133.102L98.5795 136.768L101.147 141.604L107.604 138.175L108.42 139.713L101.964 143.141L104.546 148.005L111.562 144.279L112.378 145.816L103.63 150.462Z" fill="#0F206F"/>
<path d="M115.281 128.285C114.703 127.728 114.014 127.491 113.215 127.575C112.416 127.659 111.639 128.011 110.884 128.629C110.331 129.081 109.921 129.565 109.653 130.083C109.389 130.597 109.269 131.106 109.293 131.608C109.322 132.106 109.499 132.555 109.825 132.953C110.097 133.286 110.411 133.508 110.765 133.618C111.12 133.72 111.489 133.748 111.87 133.7C112.248 133.648 112.617 133.56 112.976 133.436C113.332 133.307 113.651 133.179 113.932 133.05L115.478 132.355C115.873 132.174 116.331 131.996 116.852 131.821C117.377 131.642 117.928 131.533 118.507 131.494C119.085 131.448 119.659 131.527 120.228 131.733C120.796 131.939 121.32 132.335 121.799 132.92C122.35 133.594 122.672 134.348 122.764 135.181C122.86 136.011 122.702 136.862 122.29 137.735C121.883 138.604 121.2 139.431 120.241 140.215C119.348 140.946 118.456 141.435 117.566 141.681C116.68 141.925 115.84 141.941 115.044 141.731C114.252 141.518 113.553 141.09 112.946 140.447L114.506 139.171C114.932 139.609 115.409 139.87 115.938 139.952C116.467 140.028 117.007 139.966 117.556 139.767C118.106 139.561 118.629 139.256 119.125 138.85C119.701 138.378 120.143 137.861 120.449 137.299C120.752 136.732 120.899 136.171 120.891 135.615C120.88 135.054 120.689 134.547 120.316 134.092C119.978 133.677 119.586 133.435 119.142 133.364C118.698 133.294 118.22 133.332 117.71 133.479C117.199 133.625 116.674 133.817 116.136 134.054L114.242 134.871C113.038 135.389 111.939 135.62 110.945 135.565C109.951 135.511 109.11 135.063 108.422 134.222C107.851 133.524 107.541 132.76 107.494 131.931C107.447 131.095 107.626 130.27 108.032 129.457C108.438 128.636 109.04 127.9 109.836 127.248C110.64 126.59 111.473 126.15 112.334 125.926C113.192 125.699 114.007 125.683 114.778 125.88C115.553 126.073 116.208 126.476 116.743 127.089L115.281 128.285Z" fill="#0F206F"/>
<path d="M111.959 24.1251C112.191 23.8286 112.485 23.5865 112.82 23.4158C113.156 23.2451 113.525 23.1499 113.901 23.137L114.262 23.3947C129.049 34.2628 139.113 50.3813 142.386 68.4389C145.659 86.4965 141.892 105.122 131.859 120.488C130.529 122.523 129.095 124.487 127.563 126.374C127.169 126.513 126.747 126.555 126.334 126.495C125.921 126.435 125.528 126.276 125.19 126.031C124.852 125.786 124.578 125.462 124.393 125.088C124.207 124.713 124.116 124.3 124.126 123.882C135.105 110.394 140.455 93.1885 139.061 75.8526C137.667 58.5166 129.636 42.3875 116.642 30.8271C115.061 29.418 113.394 28.0776 111.684 26.8145C111.51 26.4593 111.424 26.0672 111.435 25.6717C111.437 25.113 111.621 24.5702 111.959 24.1251Z" fill="#0F206F"/>
<path d="M124.108 123.899C125.646 122.025 127.08 120.069 128.405 118.039L124.108 123.899Z" fill="#0F206F"/>
<path d="M94.6284 63.7015C91.9734 59.4054 80.8034 52.5315 80.8034 52.5315H63.7905C63.7905 52.5315 52.6205 59.4054 49.9654 63.7015C47.3104 67.9977 44.6725 78.0851 45.1881 80.1902C45.3203 81.0457 45.6888 81.8472 46.252 82.5046C46.8152 83.1619 47.5508 83.6489 48.3758 83.9107C49.9654 84.4435 52.6291 83.378 53.6945 81.7798C54.76 80.1817 55.2841 70.0857 60.5684 66.3652C60.5684 66.3652 53.1274 84.9676 63.7561 88.7053C63.7561 88.7053 63.2234 89.7621 59.46 88.1725L57.8704 123.796C57.8704 123.796 58.4031 128.05 62.6563 128.05C66.9095 128.05 68.0437 125.343 68.0437 125.343L72.3399 92.9155L76.5501 125.343C76.5501 125.343 77.6156 128.007 81.8688 128.007C86.122 128.007 86.6547 123.753 86.6547 123.753L85.0566 88.164C81.3361 89.7535 80.7604 88.6967 80.7604 88.6967C91.3977 84.9676 83.9567 66.3566 83.9567 66.3566C89.2668 70.0771 89.7995 80.1817 90.8306 81.7712C91.8617 83.3608 94.5511 84.4349 96.1493 83.9021C96.9728 83.6377 97.7069 83.1499 98.2697 82.493C98.8325 81.8362 99.202 81.036 99.337 80.1817C99.9471 78.0851 97.2921 67.9548 94.6284 63.7015Z" fill="#0F206F"/>
<path d="M31.5778 24.1251C31.3459 23.8286 31.0518 23.5865 30.7164 23.4158C30.3809 23.2451 30.0121 23.1499 29.6359 23.137L29.275 23.3947C14.4895 34.2641 4.42652 50.3818 1.15239 68.4383C-2.12174 86.4947 1.64147 105.119 11.6693 120.488C13.002 122.521 14.4358 124.485 15.9655 126.374C16.3592 126.513 16.7809 126.555 17.1943 126.495C17.6077 126.435 18.0003 126.276 18.3385 126.031C18.6766 125.786 18.9501 125.462 19.1355 125.088C19.3208 124.713 19.4124 124.3 19.4024 123.882C8.42429 110.393 3.07575 93.1868 4.47159 75.8508C5.86743 58.5148 13.9 42.3864 26.8949 30.8271C28.4759 29.418 30.1342 28.0776 31.8527 26.8145C32.0536 26.389 32.1341 25.9166 32.0857 25.4486C32.0372 24.9806 31.8615 24.5348 31.5778 24.1595V24.1251Z" fill="#0F206F"/>
<path d="M19.428 123.899C17.8907 122.025 16.4566 120.069 15.1318 118.039L19.428 123.899Z" fill="#0F206F"/>
<path d="M31.8526 26.7801C32.0269 26.3974 32.105 25.9778 32.08 25.558C32.0549 25.1381 31.9275 24.7308 31.7089 24.3715C31.4903 24.0122 31.1871 23.7119 30.8257 23.4967C30.4643 23.2815 30.0558 23.158 29.6357 23.137" fill="#0F206F"/>
<path d="M15.9653 126.391C16.3591 126.531 16.7808 126.572 17.1942 126.512C17.6075 126.453 18.0002 126.293 18.3383 126.048C18.6765 125.803 18.95 125.479 19.1353 125.105C19.3207 124.731 19.4123 124.317 19.4023 123.899" fill="#0F206F"/>
</svg>
