<svg xmlns="http://www.w3.org/2000/svg" xmlns:xlink="http://www.w3.org/1999/xlink" viewBox="0 0 465.13 89.17"><defs><style>.cls-1{fill:none;}.cls-2{clip-path:url(#clip-path);}.cls-3{fill:#191f6c;}.cls-4{fill:#ce0e2d;}</style><clipPath id="clip-path"><rect class="cls-1" width="465.13" height="89.12"/></clipPath></defs><title>progi-logo</title><g id="Layer_2" data-name="Layer 2"><g id="Layer_1-2" data-name="Layer 1"><g class="cls-2"><path class="cls-3" d="M0,89.12l11.36-60C12.58,22,14.17,10.43,14.9,4.32H31.51l-1.1,9.28h.25A26.3,26.3,0,0,1,51.3,3.49c13.56,0,21.38,10.75,21.38,24,0,21-14.91,38.72-36.77,38.72-5.5,0-10.14-1.47-12.34-2.81h-.24l-5,25.77ZM26.26,48.81a13,13,0,0,0,9.28,3.3c9.41,0,17.72-11,17.72-23.7,0-5-2.57-10.26-8.8-10.26-7.57,0-14.29,7.7-16.73,20.89Z"/><path class="cls-3" d="M76.69,48.11l4.72-24.67c1.25-7.12,1.78-15.23,2.23-18.88H95.21c-.26,3.12-.53,6.33-.8,9.44h.27c3-5.88,8.1-10.51,14.87-10.51q1.29,0,2.58.09L109.46,16.5a13.33,13.33,0,0,0-2-.09c-9.26,0-12.82,7.83-14.51,16.83l-2.9,14.87Z"/><path class="cls-3" d="M132.16,49.18C121,49.18,112,42.5,112,30.21,112,15,123.4,3.49,139.6,3.49c11.94,0,20.48,7.66,20.48,18.88,0,16.57-12.2,26.81-27.78,26.81Zm2-10.24c7.57,0,11.84-8.73,11.84-16,0-4.37-2-9.17-8-9.17-8.24,0-12,9.76-12,16.23,0,5.7,3.29,8.91,8,8.91Z"/><path class="cls-3" d="M239.26,82.4c-7,2.2-18.45,5.13-30.17,5.13s-22.24-2.93-29.93-9.16c-7.45-6.1-11.73-15.51-11.73-27A44.17,44.17,0,0,1,184.66,15.7c10.13-7.94,23.81-12.22,39.57-12.22,12,0,21.25,2.45,24.68,4.16l-5.38,15.27A51.47,51.47,0,0,0,223.25,19c-9,0-17.34,2.57-23.45,7a29.19,29.19,0,0,0-12,23.82c0,15,9.77,22.23,24.92,22.23a26.86,26.86,0,0,0,10.5-1.71l3.18-16.25H211.77l2.93-14.65h32.74Z"/><path class="cls-3" d="M252.69,76.28c2.3,1.14,7.05,2.9,10.95,2.9,3.22,0,4.83-1.45,4.83-3.14s-1.23-3-5-4.51c-4.67-2.07-9-5.13-9-10.26,0-8,7.28-13,17.3-13a23.5,23.5,0,0,1,10.42,2.07l-2.76,8A21.07,21.07,0,0,0,271,56.6c-2.91,0-4.82,1.15-4.82,3,0,1.46,1.68,2.76,5.13,4.29,4,1.69,9.26,4.37,9.26,10.34,0,8.73-7.81,13.47-18.07,13.32-5.2-.15-10.1-1.38-12.63-3.29Z"/><path class="cls-3" d="M306.2,38.92l-1.84,10.26h8.27l-1.76,9H302.6l-2.29,11.11a31.29,31.29,0,0,0-.69,5.28c0,1.68.69,3.14,3.29,3.14a19.38,19.38,0,0,0,3.14-.16l-1.3,9.11a21.65,21.65,0,0,1-6.74.92c-7,0-10.18-3.44-10.18-8a37.89,37.89,0,0,1,.84-7.35l2.76-14h-4.9l1.68-9h4.9l1.38-7.12Z"/><path class="cls-3" d="M344.78,84.32c-4.67,2.45-10.87,3.21-15.08,3.21-11.18,0-17.3-6-17.3-16.46a22.8,22.8,0,0,1,23-22.81c7.89,0,14.09,4,14.09,11.56,0,9.26-9.65,12.63-26.19,12.17a8.12,8.12,0,0,0,1.31,3.75c1.68,2,4.44,2.91,7.88,2.91a26.21,26.21,0,0,0,11.41-2.53Zm-6.2-24.88c0-1.69-1.76-3-4.52-3a9.76,9.76,0,0,0-9.57,7.2c9.73.07,14.09-.85,14.09-4.14Z"/><path class="cls-3" d="M351.51,87.53l4.06-21.2c1.07-6.13,1.53-13.1,1.91-16.24h9.95c-.23,2.69-.46,5.44-.69,8.12H367c2.61-5.05,7-9,12.79-9,.69,0,1.53,0,2.22.07l-2.3,11.1a12.89,12.89,0,0,0-1.76-.07c-8,0-11,6.73-12.48,14.47L363,87.53Z"/><path class="cls-3" d="M399.2,87.53c-9.57,0-17.38-5.74-17.38-16.31,0-13.09,9.8-23,23.73-23,10.26,0,17.61,6.58,17.61,16.23,0,14.24-10.49,23-23.88,23Zm1.68-8.8c6.51,0,10.19-7.51,10.19-13.78,0-3.75-1.77-7.89-6.89-7.89-7.05,0-10.26,8.42-10.26,14,0,4.9,2.83,7.66,6.89,7.66Z"/><path class="cls-3" d="M430.07,87.53,446.81.07h18.32L448.39,87.53Z"/><path class="cls-4" d="M257.44,0S347,78.94,435.1,0C435.1,0,354.88,47.23,257.44,0Z"/></g></g></g></svg>