<?xml version="1.0" encoding="UTF-8"?> <svg xmlns="http://www.w3.org/2000/svg" width="472" height="221" viewBox="0 0 472 221" fill="none"> <g clip-path="url(#clip0_2202_18)"> <path d="M2 153.12L13.36 93.12C14.58 86.03 16.17 74.43 16.9 68.32H33.51L32.41 77.6H32.66C35.1103 74.462 38.2413 71.9214 41.8167 70.1701C45.3922 68.4187 49.3187 67.5023 53.3 67.49C66.86 67.49 74.68 78.24 74.68 91.49C74.68 112.49 59.77 130.21 37.91 130.21C32.41 130.21 27.77 128.74 25.57 127.4H25.33L20.33 153.17L2 153.12ZM28.26 112.81C30.8008 115.085 34.1336 116.27 37.54 116.11C46.95 116.11 55.26 105.11 55.26 92.41C55.26 87.41 52.69 82.15 46.46 82.15C38.89 82.15 32.17 89.85 29.73 103.04L28.26 112.81Z" fill="white"></path> <path d="M78.69 112.11L83.41 87.4401C84.66 80.3201 85.19 72.2101 85.64 68.5601H97.21C96.95 71.6801 96.68 74.8901 96.41 78.0001H96.68C99.68 72.1201 104.78 67.4901 111.55 67.4901C112.411 67.4751 113.272 67.5051 114.13 67.5801L111.46 80.5001C110.796 80.4234 110.128 80.3933 109.46 80.4101C100.2 80.4101 96.64 88.2401 94.95 97.2401L92.05 112.11H78.69Z" fill="white"></path> <path d="M134.16 113.18C123 113.18 114 106.5 114 94.21C114 78.98 125.4 67.49 141.6 67.49C153.54 67.49 162.08 75.15 162.08 86.37C162.08 102.94 149.88 113.18 134.3 113.18H134.16ZM136.16 102.94C143.73 102.94 148 94.21 148 86.94C148 82.57 146 77.77 140 77.77C131.76 77.74 128 87.53 128 94C128 99.7 131.29 102.91 136 102.91L136.16 102.94Z" fill="white"></path> <path d="M241.26 146.4C234.26 148.6 222.81 151.53 211.09 151.53C199.37 151.53 188.85 148.6 181.16 142.37C173.71 136.27 169.43 126.86 169.43 115.37C169.328 108.494 170.833 101.689 173.824 95.4962C176.815 89.3037 181.211 83.8949 186.66 79.7C196.79 71.76 210.47 67.48 226.23 67.48C238.23 67.48 247.48 69.93 250.91 71.64L245.53 86.91C239.103 84.2511 232.205 82.9211 225.25 83C216.25 83 207.91 85.57 201.8 90C198.053 92.7331 195.01 96.3189 192.924 100.461C190.837 104.603 189.766 109.182 189.8 113.82C189.8 128.82 199.57 136.05 214.72 136.05C218.299 136.187 221.869 135.605 225.22 134.34L228.4 118.09H213.77L216.7 103.44H249.44L241.26 146.4Z" fill="white"></path> <path d="M254.69 140.28C256.99 141.42 261.74 143.18 265.64 143.18C268.86 143.18 270.47 141.73 270.47 140.04C270.47 138.35 269.24 137.04 265.47 135.53C260.8 133.46 256.47 130.4 256.47 125.27C256.47 117.27 263.75 112.27 273.77 112.27C277.356 112.156 280.92 112.864 284.19 114.34L281.43 122.34C278.77 121.186 275.9 120.594 273 120.6C270.09 120.6 268.18 121.75 268.18 123.6C268.18 125.06 269.86 126.36 273.31 127.89C277.31 129.58 282.57 132.26 282.57 138.23C282.57 146.96 274.76 151.7 264.5 151.55C259.3 151.4 254.4 150.17 251.87 148.26L254.69 140.28Z" fill="white"></path> <path d="M308.2 102.92L306.36 113.18H314.63L312.87 122.18H304.6L302.31 133.29C301.928 135.027 301.697 136.793 301.62 138.57C301.62 140.25 302.31 141.71 304.91 141.71C305.959 141.74 307.009 141.687 308.05 141.55L306.75 150.66C304.565 151.318 302.291 151.628 300.01 151.58C293.01 151.58 289.83 148.14 289.83 143.58C289.866 141.108 290.147 138.646 290.67 136.23L293.43 122.23H288.53L290.21 113.23H295.11L296.49 106.11L308.2 102.92Z" fill="white"></path> <path d="M346.78 148.32C342.11 150.77 335.91 151.53 331.7 151.53C320.52 151.53 314.4 145.53 314.4 135.07C314.399 132.058 314.994 129.076 316.152 126.295C317.309 123.515 319.006 120.991 321.145 118.87C323.284 116.75 325.821 115.073 328.611 113.939C331.401 112.804 334.388 112.234 337.4 112.26C345.29 112.26 351.49 116.26 351.49 123.82C351.49 133.08 341.84 136.45 325.3 135.99C325.422 137.329 325.872 138.617 326.61 139.74C328.29 141.74 331.05 142.65 334.49 142.65C338.435 142.675 342.335 141.81 345.9 140.12L346.78 148.32ZM340.58 123.44C340.58 121.75 338.82 120.44 336.06 120.44C333.892 120.41 331.776 121.101 330.044 122.404C328.312 123.707 327.062 125.549 326.49 127.64C336.22 127.71 340.58 126.79 340.58 123.5V123.44Z" fill="white"></path> <path d="M353.51 151.53L357.57 130.33C358.64 124.2 359.1 117.23 359.48 114.09H369.43C369.2 116.78 368.97 119.53 368.74 122.21H369C371.61 117.16 376 113.21 381.79 113.21C382.48 113.21 383.32 113.21 384.01 113.28L381.71 124.38C381.125 124.318 380.538 124.295 379.95 124.31C371.95 124.31 368.95 131.04 367.47 138.78L365 151.53H353.51Z" fill="white"></path> <path d="M401.2 151.53C391.63 151.53 383.82 145.79 383.82 135.22C383.82 122.13 393.62 112.22 407.55 112.22C417.81 112.22 425.16 118.8 425.16 128.45C425.16 142.69 414.67 151.45 401.28 151.45L401.2 151.53ZM402.88 142.73C409.39 142.73 413.07 135.22 413.07 128.95C413.07 125.2 411.3 121.06 406.18 121.06C399.13 121.06 395.92 129.48 395.92 135.06C395.92 139.96 398.75 142.72 402.81 142.72L402.88 142.73Z" fill="white"></path> <path d="M432.07 151.53L448.81 64.0699H467.13L450.39 151.53H432.07Z" fill="white"></path> <path d="M259.44 64C259.44 64 349 142.94 437.1 64C437.1 64 356.88 111.23 259.44 64Z" fill="#CE0E2D"></path> </g> <defs> <clipPath id="clip0_2202_18"> <rect width="465.13" height="89.12" fill="white" transform="translate(2 64)"></rect> </clipPath> </defs> </svg> 