<svg xmlns="http://www.w3.org/2000/svg" viewBox="0 0 728.6 698"><defs><style>.cls-1,.cls-10,.cls-11,.cls-12,.cls-13,.cls-14,.cls-15,.cls-16,.cls-17,.cls-18,.cls-19,.cls-2,.cls-20,.cls-21,.cls-22,.cls-23,.cls-24,.cls-25,.cls-26,.cls-27,.cls-28,.cls-29,.cls-3,.cls-30,.cls-31,.cls-32,.cls-4,.cls-5,.cls-6,.cls-7,.cls-8,.cls-9{fill:none;stroke:#000;stroke-linecap:round;stroke-linejoin:round;}.cls-1{stroke-dasharray:0 9.95 0 9.95 0 9.95;}.cls-2{stroke-width:1.13px;stroke-dasharray:0 10.07 0 10.07 0 10.07;}.cls-3{stroke-width:1.26px;stroke-dasharray:0 10.05 0 10.05 0 10.05;}.cls-4{stroke-width:1.39px;stroke-dasharray:0 10.03 0 10.03 0 10.03;}.cls-5{stroke-width:1.52px;stroke-dasharray:0 10.02 0 10.02 0 10.02;}.cls-6{stroke-width:1.65px;stroke-dasharray:0 10 0 10 0 10;}.cls-7{stroke-width:1.77px;stroke-dasharray:0 9.98 0 9.98 0 9.98;}.cls-8{stroke-width:1.9px;stroke-dasharray:0 9.96 0 9.96 0 9.96;}.cls-9{stroke-width:2.03px;stroke-dasharray:0 9.93 0 9.93 0 9.93;}.cls-10{stroke-width:2.16px;stroke-dasharray:0 10.09 0 10.09 0 10.09;}.cls-11{stroke-width:2.29px;stroke-dasharray:0 10.07 0 10.07 0 10.07;}.cls-12{stroke-width:2.42px;stroke-dasharray:0 10.05 0 10.05 0 10.05;}.cls-13{stroke-width:2.55px;stroke-dasharray:0 10.02 0 10.02 0 10.02;}.cls-14{stroke-width:2.68px;stroke-dasharray:0 10 0 10 0 10;}.cls-15{stroke-width:2.81px;stroke-dasharray:0 9.97 0 9.97 0 9.97;}.cls-16{stroke-width:2.94px;stroke-dasharray:0 9.94 0 9.94 0 9.94;}.cls-17{stroke-width:3.06px;stroke-dasharray:0 9.91 0 9.91 0 9.91;}.cls-18{stroke-width:3.19px;stroke-dasharray:0 9.87 0 9.87 0 9.87;}.cls-19{stroke-width:3.32px;stroke-dasharray:0 10.11 0 10.11 0 10.11;}.cls-20{stroke-width:3.45px;stroke-dasharray:0 10.08 0 10.08 0 10.08;}.cls-21{stroke-width:3.58px;stroke-dasharray:0 10.04 0 10.04 0 10.04;}.cls-22{stroke-width:3.71px;stroke-dasharray:0 10 0 10 0 10;}.cls-23{stroke-width:3.84px;stroke-dasharray:0 9.96 0 9.96 0 9.96;}.cls-24{stroke-width:3.97px;stroke-dasharray:0 9.91 0 9.91 0 9.91;}.cls-25{stroke-width:4.1px;stroke-dasharray:0 9.85 0 9.85 0 9.85;}.cls-26{stroke-width:4.23px;stroke-dasharray:0 9.78 0 9.78 0 9.78;}.cls-27{stroke-width:4.35px;stroke-dasharray:0 10.21 0 10.21 0 10.21;}.cls-28{stroke-width:4.48px;stroke-dasharray:0 10.16 0 10.16 0 10.16;}.cls-29{stroke-width:4.61px;stroke-dasharray:0 10.1 0 10.1 0 10.1;}.cls-30{stroke-width:4.74px;stroke-dasharray:0 10.01 0 10.01 0 10.01;}.cls-31{stroke-width:4.87px;stroke-dasharray:0 9.9 0 9.9 0 9.9;}.cls-32{stroke-width:5px;stroke-dasharray:0 9.74 0 9.74 0 9.74;}</style></defs><title>Asset 5</title><g id="Layer_2" data-name="Layer 2"><g id="Layer_1-2" data-name="Layer 1"><ellipse class="cls-1" cx="364.3" cy="349" rx="363.8" ry="348.5"/><ellipse class="cls-2" cx="364.08" cy="349" rx="353.44" ry="338.58"/><ellipse class="cls-3" cx="363.85" cy="349" rx="343.09" ry="328.66"/><ellipse class="cls-4" cx="363.63" cy="349" rx="332.73" ry="318.74"/><ellipse class="cls-5" cx="363.41" cy="349" rx="322.38" ry="308.82"/><ellipse class="cls-6" cx="363.18" cy="349" rx="312.02" ry="298.9"/><ellipse class="cls-7" cx="362.96" cy="349" rx="301.67" ry="288.98"/><ellipse class="cls-8" cx="362.73" cy="349" rx="291.31" ry="279.06"/><ellipse class="cls-9" cx="362.51" cy="349" rx="280.96" ry="269.14"/><ellipse class="cls-10" cx="362.29" cy="349" rx="270.6" ry="259.22"/><ellipse class="cls-11" cx="362.06" cy="349" rx="260.25" ry="249.3"/><ellipse class="cls-12" cx="361.84" cy="349" rx="249.89" ry="239.38"/><ellipse class="cls-13" cx="361.62" cy="349" rx="239.53" ry="229.46"/><ellipse class="cls-14" cx="361.39" cy="349" rx="229.18" ry="219.54"/><ellipse class="cls-15" cx="361.17" cy="349" rx="218.82" ry="209.62"/><ellipse class="cls-16" cx="360.95" cy="349" rx="208.47" ry="199.7"/><ellipse class="cls-17" cx="360.72" cy="349" rx="198.11" ry="189.78"/><ellipse class="cls-18" cx="360.5" cy="349" rx="187.76" ry="179.86"/><ellipse class="cls-19" cx="360.27" cy="349" rx="177.4" ry="169.94"/><ellipse class="cls-20" cx="360.05" cy="349" rx="167.05" ry="160.02"/><ellipse class="cls-21" cx="359.83" cy="349" rx="156.69" ry="150.1"/><ellipse class="cls-22" cx="359.6" cy="349" rx="146.33" ry="140.18"/><ellipse class="cls-23" cx="359.38" cy="349" rx="135.98" ry="130.26"/><ellipse class="cls-24" cx="359.16" cy="349" rx="125.62" ry="120.34"/><ellipse class="cls-25" cx="358.93" cy="349" rx="115.27" ry="110.42"/><ellipse class="cls-26" cx="358.71" cy="349" rx="104.91" ry="100.5"/><ellipse class="cls-27" cx="358.48" cy="349" rx="94.56" ry="90.58"/><ellipse class="cls-28" cx="358.26" cy="349" rx="84.2" ry="80.66"/><ellipse class="cls-29" cx="358.04" cy="349" rx="73.85" ry="70.74"/><ellipse class="cls-30" cx="357.81" cy="349" rx="63.49" ry="60.82"/><ellipse class="cls-31" cx="357.59" cy="349" rx="53.14" ry="50.9"/><ellipse class="cls-32" cx="357.37" cy="349" rx="42.78" ry="40.98"/></g></g></svg>