<svg xmlns="http://www.w3.org/2000/svg" xmlns:xlink="http://www.w3.org/1999/xlink" viewBox="0 0 220 100"><defs><style>.cls-1{fill:none;}.cls-2{clip-path:url(#clip-path);}.cls-3{fill:#0f206f;}.cls-4{fill:#fff;}</style><clipPath id="clip-path" transform="translate(0 0.8)"><rect class="cls-1" width="220" height="98.39"/></clipPath></defs><title>Asset 1</title><g id="Layer_2" data-name="Layer 2"><g id="Layer_1-2" data-name="Layer 1"><g class="cls-2"><path class="cls-3" d="M62.41,71.31V.25H78.27V99.08c-5.17,0-10.27.38-15.29-.22-1.81-.21-3.83-2.45-4.92-4.29C45.54,74.22,33.18,53.68,20.76,33.22c-1.21-2-2.5-4-4.58-7.28v72.6H0V-.18c5.35,0,10.46-.39,15.44.2,1.79.22,3.73,2.56,4.87,4.4C33,25.16,45.61,46,58.25,66.79c1,1.62,2,3.18,3.06,4.77Z" transform="translate(0 0.8)"/><path class="cls-3" d="M101.48,98.64V-.8c17.47.66,34.77.23,51.78,2.29,12.8,1.57,21.91,10.48,26.62,23a67.9,67.9,0,0,1,.3,48.81c-6,16.2-18,24.56-34.67,25.19C131,99,116.5,98.64,101.48,98.64Zm16.65-13.57c7.93,0,15.19.4,22.41-.08,15.34-1.06,24.66-9.61,26.19-24.91a116.06,116.06,0,0,0-.64-23.92c-1.2-10.67-7.7-18-17.64-20.13-9.77-2.05-20-1.8-30.29-2.57Z" transform="translate(0 0.8)"/><path class="cls-3" d="M204.08.09H220V98.75H204.08Z" transform="translate(0 0.8)"/><path class="cls-4" d="M118.13,85V13.46c10.3.78,20.52.52,30.29,2.57,9.94,2.09,16.44,9.46,17.64,20.13.88,7.9,1.44,16,.64,23.92-1.53,15.3-10.82,23.85-26.16,24.87C133.32,85.43,126.06,85,118.13,85Z" transform="translate(0 0.8)"/></g></g></g></svg>