<svg xmlns="http://www.w3.org/2000/svg" xmlns:xlink="http://www.w3.org/1999/xlink" viewBox="0 0 122.04 122.04"><defs><style>.cls-1{fill:none;}.cls-2{fill:#191f6c;}.cls-3{fill:#fff;}.cls-4{clip-path:url(#clip-path);}.cls-5{fill:#0f206f;}</style><clipPath id="clip-path"><rect class="cls-1" x="35.78" y="19.39" width="53.64" height="79.93"/></clipPath></defs><title>easy-to-takee</title><g id="Layer_2" data-name="Layer 2"><g id="Layer_1-2" data-name="Layer 1"><g id="Layer_2-2" data-name="Layer 2"><g id="Layer_1-2-2" data-name="Layer 1-2"><circle class="cls-2" cx="61.02" cy="61.02" r="61.02"/><circle class="cls-3" cx="60.59" cy="59.83" r="49.36"/><g class="cls-4"><path class="cls-5" d="M76.19,61.25c3.68,1.61,4.77,3.52,4.18,7.33a5,5,0,0,1,3.71,2.17A5.51,5.51,0,0,1,84.87,75a7.23,7.23,0,0,1,3.89,3.09c.78,1.13.92,3.81.17,4.72-3.58,4.32-7,8.93-11.73,12C69,100.11,60.31,101,51.44,96.13a19.64,19.64,0,0,1-7-6.91,21.42,21.42,0,0,1-3.38-12.65A18.6,18.6,0,0,0,37.35,65a9.55,9.55,0,0,1-1.53-3.16,5,5,0,0,1,.44-2.59,5.38,5.38,0,0,1,3.47-3.33,5.26,5.26,0,0,1,2.46-.17,5.47,5.47,0,0,1,2.29.93,18,18,0,0,1,4.68,5.44,25.1,25.1,0,0,0,2.12,2.8,1.65,1.65,0,0,0,2.06.34,11.76,11.76,0,0,0,2.74-1.5c3.11-2.57,6.21-5.14,9.18-7.86,2.77-2.54,5.36-5.25,8-7.89.57-.56,1.18-1.1,1.77-1.64a5.87,5.87,0,0,1,8,.27,5.62,5.62,0,0,1,0,7.93c-2.07,2.09-4.21,4.1-6.32,6.15A3.21,3.21,0,0,1,76.19,61.25ZM71.33,75l-.42-.16c-4.57-1.45-5.81-6.3-2.42-9.68,2.06-2.06,4.18-4,6.26-6.09s4-4,6-6A6.66,6.66,0,0,0,81.85,52a2.92,2.92,0,0,0-.47-3.46c-1.65-1.34-3.3-1.47-4.57-.29s-2.36,2.32-3.55,3.47c-3.14,3-6.23,6.12-9.44,9.08S57.43,66.61,53.17,68c.37,2.74.19,4.13-.8,6-.66,1.27-1.42,1.66-2.29,1.19s-.8-1.06-.13-2.37A5.22,5.22,0,0,0,49.57,67q-1.53-2.08-3-4.23a12.11,12.11,0,0,0-3.67-4,2.67,2.67,0,0,0-3.3,0,2.73,2.73,0,0,0-1.07,3.15,8,8,0,0,0,1,2,21.23,21.23,0,0,1,4.14,12.79,21.57,21.57,0,0,0,2.61,10.87c1.74,3.21,6.35,4.62,9.42,2.65a26.53,26.53,0,0,0,4-3.56c.58-.56,1.12-.93,1.85-.4a1.2,1.2,0,0,1,.38,1.65,1.18,1.18,0,0,1-.17.22c-2.24,3-5,5.23-8.94,5.49-.11,0-.21.1-.34.16,8,5.38,21.72,3.37,28.51-6.08-3.34-1.49-3.95-3.17-4.2-5.86C72.7,81.08,71.05,78.76,71.33,75ZM68.86,69.3c.22,2.14,2.55,4,4.09,3a24,24,0,0,0,4.2-3.3,3.09,3.09,0,0,0,.71-1,3.2,3.2,0,0,0,.24-1.22,3.15,3.15,0,0,0-.28-1.21,3.06,3.06,0,0,0-.75-1,3.33,3.33,0,0,0-4.58.16A35.13,35.13,0,0,0,70,67.27a15.17,15.17,0,0,0-1.14,2ZM79.63,71a6.79,6.79,0,0,0-1.43.64A35.41,35.41,0,0,0,75,74.23a3.45,3.45,0,0,0-.92,1.63,2.89,2.89,0,0,0,1.55,3,2.29,2.29,0,0,0,3.07-.55c.84-.84,1.63-1.73,2.54-2.49,1.11-.92,1.51-1.78,1.14-2.95a2.92,2.92,0,0,0-2.71-1.94Zm-.18,11.1A2.88,2.88,0,0,0,81,84.88a2.55,2.55,0,0,0,2.89,0,13.34,13.34,0,0,0,2.4-2.74,3.11,3.11,0,0,0-1-4.27,3.34,3.34,0,0,0-.85-.36,1.46,1.46,0,0,0-1.64.43c-.53.6-1.2,1.08-1.79,1.63-.81.72-1.64,1.41-1.55,2.47Z"/><path class="cls-5" d="M71.17,34.7V27.47c0-1.06.43-1.63,1.22-1.66a1.52,1.52,0,0,1,1.5,1.54V42.07a1.5,1.5,0,0,1-1.45,1.55h-.07c-1-.09-1.19-.76-1.19-1.59C71.17,39.59,71.17,37.14,71.17,34.7Z"/><path class="cls-5" d="M38.32,35.9a5.26,5.26,0,0,1,.9.57q5.45,5.31,10.87,10.66c.59.57.83,1.29.22,1.87-.32.3-1,.24-1.53.25-.15,0-.32-.23-.46-.37L37.59,38.36c-.82-.81-.85-1.67-.11-2.16A4.21,4.21,0,0,1,38.32,35.9Z"/><path class="cls-5" d="M57.91,35.7c-.41.37-.76.92-1.23,1.07-.7.21-1.23-.26-1.41-1-.6-2.33-1.18-4.67-1.76-7-.63-2.5-1.27-5-1.87-7.49-.29-1.2.28-2.12,1.21-1.89a1.75,1.75,0,0,1,1.11,1c1.27,4.88,2.49,9.78,3.71,14.68v.4Z"/><path class="cls-5" d="M60.71,42.39a3.44,3.44,0,0,0,3.95,2.8,3.49,3.49,0,0,0-1.48,4.66c-1.7-1.62-3.33-1.08-5.08.1.1-.72,0-1.19.23-1.49.77-1.12,0-1.67-.73-2.25a3.34,3.34,0,0,1-1-.91C58.68,45.21,60.25,44.69,60.71,42.39Z"/><path class="cls-5" d="M61.63,29.41c1.18-.87,1.75-1.84,1.12-3.34a3.09,3.09,0,0,0,3.81.12c-.82,1.5-.31,2.51,1,3.39-1.56,0-2.71.4-3.19,2A2.59,2.59,0,0,0,61.63,29.41Z"/><path class="cls-5" d="M45.32,33.34a2.63,2.63,0,0,0-2.41-2.76,2.53,2.53,0,0,0,2.17-2.84s0,0,0-.08a2.65,2.65,0,0,0,3.44.93,2.63,2.63,0,0,0,.11,3.56A2.6,2.6,0,0,0,45.32,33.34Z"/><path class="cls-3" d="M71.33,75c-.29,3.72,1.36,6,5.49,6.78.25,2.69.87,4.38,4.21,5.87-6.8,9.44-20.57,11.46-28.52,6.08.14-.07.24-.16.34-.16,4-.26,6.71-2.45,8.94-5.5a1.21,1.21,0,0,0,0-1.7,1.84,1.84,0,0,0-.22-.17c-.71-.52-1.27-.15-1.85.41a28.76,28.76,0,0,1-4,3.56c-3.07,2-7.67.56-9.42-2.65a21.46,21.46,0,0,1-2.6-10.87,21.23,21.23,0,0,0-4.14-12.79,8.32,8.32,0,0,1-1-2,2.66,2.66,0,0,1,0-1.76,2.69,2.69,0,0,1,1.07-1.39,2.65,2.65,0,0,1,3.3,0,12.25,12.25,0,0,1,3.68,4q1.46,2.15,3,4.23A5.19,5.19,0,0,1,50,72.81c-.66,1.31-.64,2,.14,2.37s1.62.08,2.28-1.18c1-1.89,1.18-3.27.8-6,4.26-1.37,7.47-4.29,10.65-7.21s6.3-6,9.44-9.08c1.18-1.15,2.33-2.34,3.55-3.47s2.93-1.05,4.57.29A2.89,2.89,0,0,1,81.84,52a6.66,6.66,0,0,1-1.1,1.15l-6,6c-2,2-4.19,4-6.25,6.08-3.39,3.38-2.16,8.24,2.42,9.68A3.38,3.38,0,0,1,71.33,75Z"/><path class="cls-3" d="M68.86,69.3a12.8,12.8,0,0,1,1.15-2,29.85,29.85,0,0,1,2.49-2.54,3.32,3.32,0,0,1,4.58-.16,2.9,2.9,0,0,1,.74,1,3,3,0,0,1,.28,1.21A2.94,2.94,0,0,1,77.15,69,23.89,23.89,0,0,1,73,72.33C71.42,73.26,69.08,71.45,68.86,69.3Z"/><path class="cls-3" d="M79.64,71a2.92,2.92,0,0,1,2.71,1.94c.37,1.17,0,2-1.14,3-.91.76-1.69,1.64-2.54,2.48a2.26,2.26,0,0,1-3.07.55,2.87,2.87,0,0,1-1.55-3A3.42,3.42,0,0,1,75,74.28a33.9,33.9,0,0,1,3.23-2.62A8.6,8.6,0,0,1,79.64,71Z"/><path class="cls-3" d="M79.45,82c-.07-1,.76-1.75,1.55-2.5.62-.51,1.22-1.05,1.79-1.62a1.47,1.47,0,0,1,1.64-.44,3.09,3.09,0,0,1,2.21,3.78,3.2,3.2,0,0,1-.36.85,13.34,13.34,0,0,1-2.4,2.74,2.55,2.55,0,0,1-2.89,0A2.82,2.82,0,0,1,79.45,82Z"/></g></g></g></g></g></svg>