<svg xmlns="http://www.w3.org/2000/svg" xmlns:xlink="http://www.w3.org/1999/xlink" viewBox="0 0 251.38 219.41"><defs><style>.cls-1{fill:none;}.cls-2{clip-path:url(#clip-path);}.cls-3{fill:#191f6c;}</style><clipPath id="clip-path" transform="translate(0.02 -0.06)"><rect class="cls-1" width="251.4" height="219.47"/></clipPath></defs><title>holding-cup</title><g id="Layer_2" data-name="Layer 2"><g id="Layer_1-2" data-name="Layer 1"><g class="cls-2"><path class="cls-3" d="M154.28,209.85H45.62c-1-5.43-1.9-10.7-2.8-16H69.94a20.66,20.66,0,0,0,13.11-36.69,20.47,20.47,0,0,0,0-31.88,20.51,20.51,0,0,0,1.89-30.19A20.69,20.69,0,0,0,74.16,56.74H28.45c-.82-23.21-.51-39.65-.24-47.05H171.69c.13,3.63.28,9.58.3,17.28a28.25,28.25,0,0,0-14.88-1.18l-30,6a28.33,28.33,0,0,0-22.8,28.53l1.56,64.52a4.82,4.82,0,0,0,3.82,4.59,18.4,18.4,0,0,0,3.54.3A26.27,26.27,0,0,0,129.46,124c7.61-6,12.74-15.93,15.33-29.78C149.59,102.8,156.94,113,167,121,164.31,147.43,160.36,177.21,154.28,209.85ZM29.18,184.26a11.13,11.13,0,0,1,0-22.26H69.93a11.13,11.13,0,0,1,0,22.26Zm-19.58-43a11.14,11.14,0,0,1,11.12-11.13H69.93a11.13,11.13,0,0,1,0,22.26H20.72A11.14,11.14,0,0,1,9.6,141.25Zm11.12-43H69.93a11.13,11.13,0,0,1,0,22.26H20.72a11.13,11.13,0,0,1,0-22.26ZM25,66.36H74.16a11.13,11.13,0,1,1,0,22.26H25a11.13,11.13,0,0,1,0-22.26Zm221.6,107.11h-26.8a4.79,4.79,0,0,0-2.67.81,59.11,59.11,0,0,1-32.92,10H168.42c3.25-20.36,5.75-39.49,7.61-57.13a4.75,4.75,0,0,0,5.74-2.06A4.81,4.81,0,0,0,180,118.5c-23.09-13.21-33.49-43.31-33.59-43.61A4.81,4.81,0,0,0,137,76.25c-.94,25-7.75,35.6-13.31,40.05a17,17,0,0,1-8.34,3.68l-1.46-59.89A18.73,18.73,0,0,1,129,41.23l30-6a18.82,18.82,0,0,1,16.49,4.69l45.3,42.33a4.81,4.81,0,0,0,3.28,1.3h22.47a4.82,4.82,0,0,0,0-9.63H226l-43.91-41c-.14-.13-.32-.21-.46-.33.09-17.68-.48-27.69-.51-28a4.81,4.81,0,0,0-4.8-4.51H23.61a4.81,4.81,0,0,0-4.8,4.51c0,.41-1.14,20,.05,53.19a20.59,20.59,0,0,0-8.92,34A20.55,20.55,0,0,0,7.6,125.31a20.62,20.62,0,0,0,5.29,35.13,20.53,20.53,0,0,0-4.45,12.69,20.77,20.77,0,0,0,20.74,20.75h3.9c1.2,7.12,2.43,14.28,3.83,21.68a4.81,4.81,0,0,0,4.73,3.91H158.27a4.8,4.8,0,0,0,4.72-3.91c1.41-7.39,2.66-14.56,3.86-21.68h17.31a68.64,68.64,0,0,0,37-10.79h25.37a4.81,4.81,0,0,0,0-9.62" transform="translate(0.02 -0.06)"/></g></g></g></svg>