<svg xmlns="http://www.w3.org/2000/svg" viewBox="0 0 337.22 337.22"><defs><style>.cls-1{fill:#191f6c;}</style></defs><title>timer</title><g id="Layer_2" data-name="Layer 2"><g id="timer"><path class="cls-1" d="M168.61,0A168.61,168.61,0,1,0,337.22,168.61,168.61,168.61,0,0,0,168.61,0Zm0,304.59c-75,0-136-61-136-136s61-136,136-136,136,61,136,136S243.59,304.59,168.61,304.59Z"/><path class="cls-1" d="M57.37,155H95.43v27.2H57.37Zm68.1,126-9.4-5.47,14.47-24.85,9.4,5.48ZM77.26,236.93l-5.44-9.42L96.76,213.1l5.44,9.42Zm19.5-112.8L71.82,109.72l5.44-9.42,24.95,14.41Zm33.78-37.57L116.07,61.72l9.41-5.48L140,81.08Zm113.31,67.81c-1.1,3.39-1.66,8.63-1.66,15.69q0,10.13,1.66,15.47t6.8,5.37q5.15,0,6.74-5.37t1.6-15.47c0-7.06-.54-12.3-1.6-15.69s-3.31-5.1-6.74-5.1S245,151,243.85,154.37Z"/><path class="cls-1" d="M166.3,46.64V290.58a122,122,0,0,0,0-243.94Zm53,148q-5.16,5.63-15.26,5.64-12.45,0-17.3-8.13a19.47,19.47,0,0,1-2.2-5.94c-.61-2.94,1.81-5.39,4.81-5.39h.45c3,0,5.39,1.35,5.68,3a11.08,11.08,0,0,0,.89,2.85c1.4,2.83,4,4.25,7.63,4.25a8.45,8.45,0,0,0,5.91-2.34c1.69-1.55,2.53-3.77,2.53-6.69q0-5.79-4.68-7.72a15.07,15.07,0,0,0-4.14-.91,4.53,4.53,0,0,1-4.25-4.32,4.41,4.41,0,0,1,4-4.34,13.18,13.18,0,0,0,3.87-.87c2.55-1.13,3.82-3.43,3.82-6.88a7.7,7.7,0,0,0-1.95-5.46,7.16,7.16,0,0,0-5.52-2.11c-2.72,0-4.71.87-6,2.59a8.91,8.91,0,0,0-1.49,3.3c-.46,1.95-2.75,3.62-5.73,3.62s-5.35-1.91-4.94-4.2a27.86,27.86,0,0,1,1.05-4.09,18.69,18.69,0,0,1,4.45-6.35,15.48,15.48,0,0,1,5.37-3.16,23.22,23.22,0,0,1,7.64-1.09q8.4,0,13.56,4.35a14.48,14.48,0,0,1,5.15,11.67,12.92,12.92,0,0,1-3.07,8.74,13.06,13.06,0,0,1-1.84,1.76c-1.11.87-1,1.46.25,2.29a19.63,19.63,0,0,1,2.08,1.7q4.41,4.08,4.41,11.16A18.83,18.83,0,0,1,219.32,194.64Zm47.05-47q4.51,7.89,4.5,22.41t-4.5,22.37c-3,5.24-8.25,7.85-15.73,7.85s-12.71-2.61-15.72-7.85-4.5-12.68-4.5-22.37,1.49-17.15,4.5-22.41,8.25-7.89,15.72-7.89S263.35,142.39,266.37,147.65Z"/></g></g></svg>