<svg xmlns="http://www.w3.org/2000/svg" xmlns:xlink="http://www.w3.org/1999/xlink" viewBox="0 0 268.55 242.56"><defs><style>.cls-1{fill:none;}.cls-2{clip-path:url(#clip-path);}.cls-3{fill:#191f6c;}.cls-4{fill:#eff4f3;}.cls-5{fill:#fff;}</style><clipPath id="clip-path" transform="translate(-0.6 -0.09)"><rect class="cls-1" width="270.33" height="243.63"/></clipPath></defs><title>weight</title><g id="Layer_2" data-name="Layer 2"><g id="Layer_1-2" data-name="Layer 1"><g id="weight"><g class="cls-2"><path class="cls-3" d="M134.88.09C102.63.09,29,13,12.19,41.88-12.27,84,3.93,208.49,42.6,236.53c19,13.76,69.21,0,92.28,0s73.3,13.76,92.27,0C265.83,208.49,282,84,257.57,41.88,240.78,13,167.13.09,134.88.09" transform="translate(-0.6 -0.09)"/></g><path class="cls-3" d="M196.87,41c-39.22-22.42-84.77-22.42-124,0Q83.54,58.13,94.19,75.27c26.23-14.59,55.14-14.59,81.38,0Zm-2.06,0Q185,57.38,175.12,73.77c-26-14-54.45-14-80.48,0Q84.8,57.38,75,41c38.11-21,81.75-21,119.86,0" transform="translate(-0.6 -0.09)"/><path class="cls-4" d="M195.83,41c-38.68-21.71-83.22-21.71-121.91,0L94.41,74.53a84.44,84.44,0,0,1,37.34-10.67V50.7l-5.88.93,9-7.78,9,7.78L138,50.7V63.86a84.4,84.4,0,0,1,37.34,10.67L195.83,41" transform="translate(-0.6 -0.09)"/><path class="cls-3" d="M143.88,51.63l-9-7.78-9,7.78,5.88-.93V63.86q3.13-.12,6.25,0V50.7l5.88.93" transform="translate(-0.6 -0.09)"/><path class="cls-3" d="M84.69,54.88a.81.81,0,0,0,1.08.25.78.78,0,0,0,.34-1L78.45,40.48c-.66.36-1,.55-1.64.92,2.63,4.5,5.26,9,7.88,13.48" transform="translate(-0.6 -0.09)"/><path class="cls-3" d="M96.51,49.14c.38.9,1.85.3,1.49-.59L92.21,34.07l-1.72.68,6,14.39" transform="translate(-0.6 -0.09)"/><path class="cls-3" d="M108.83,45c.25.93,1.78.56,1.54-.39q-1.94-7.55-3.85-15.1l-1.78.46q2.06,7.52,4.09,15" transform="translate(-0.6 -0.09)"/><path class="cls-3" d="M121.48,42.52a.79.79,0,0,0,1.57-.2l-1.86-15.46-1.8.24q1,7.71,2.09,15.42" transform="translate(-0.6 -0.09)"/><path class="cls-3" d="M134.31,41.64a.79.79,0,0,0,1.57,0c.06-5.19.1-10.38.16-15.56h-1.82q0,7.77.09,15.56" transform="translate(-0.6 -0.09)"/><path class="cls-3" d="M147.14,42.38a.79.79,0,0,0,1.56.2q1.1-7.71,2.18-15.42c-.73-.1-1.09-.15-1.81-.23-.64,5.14-1.28,10.3-1.93,15.45" transform="translate(-0.6 -0.09)"/><path class="cls-3" d="M159.82,44.74a.77.77,0,0,0,.57.91.79.79,0,0,0,1-.51l4.16-15-1.78-.46q-1.95,7.53-3.91,15.08" transform="translate(-0.6 -0.09)"/><path class="cls-3" d="M172.17,48.71a.8.8,0,0,0,1.48.61L179.74,35l-1.71-.7-5.86,14.46" transform="translate(-0.6 -0.09)"/><path class="cls-3" d="M184,54.31a.81.81,0,0,0,1.41.8l8-13.45c-.65-.38-1-.56-1.64-.92q-3.85,6.78-7.72,13.57" transform="translate(-0.6 -0.09)"/><path class="cls-3" d="M87.61,46a.82.82,0,0,0,1.1.29.8.8,0,0,0,.45-1C87.59,42,86.81,40.31,85.25,37c-.67.31-1,.48-1.69.81,1.62,3.23,2.43,4.85,4,8.1" transform="translate(-0.6 -0.09)"/><path class="cls-3" d="M100.5,40.69a.85.85,0,0,0,1.61-.52c-1.12-3.45-1.68-5.16-2.81-8.6-.7.22-1,.33-1.74.57,1.17,3.42,1.76,5.14,2.94,8.55" transform="translate(-0.6 -0.09)"/><path class="cls-3" d="M154.73,36.94c-.17,1,1.46,1.26,1.66.32.74-3.55,1.1-5.31,1.84-8.85l-1.8-.35-1.7,8.88" transform="translate(-0.6 -0.09)"/><path class="cls-3" d="M168.1,40.31a.8.8,0,0,0,.57,1,.82.82,0,0,0,1-.44c1.19-3.41,1.79-5.12,3-8.54l-1.74-.58c-1.14,3.44-1.71,5.16-2.84,8.59" transform="translate(-0.6 -0.09)"/><path class="cls-3" d="M181,45.42c-.42.89,1.12,1.59,1.55.74l4.07-8.09L185,37.26,181,45.42" transform="translate(-0.6 -0.09)"/><path class="cls-5" d="M189.46,105.65c0,6.59-3.41,11.93-7.61,11.93s-7.62-5.34-7.62-11.93,3.42-11.92,7.62-11.92,7.61,5.34,7.61,11.92" transform="translate(-0.6 -0.09)"/><path class="cls-5" d="M208.56,102.27c0,5.51-3.13,10-7,10s-7-4.46-7-10,3.13-10,7-10,7,4.46,7,10" transform="translate(-0.6 -0.09)"/><path class="cls-5" d="M223.31,104.32c0,5-2.46,9-5.51,9s-5.5-4-5.5-9,2.47-9,5.5-9,5.51,4,5.51,9" transform="translate(-0.6 -0.09)"/><path class="cls-5" d="M234.65,109.92c0,4.23-1.9,7.66-4.23,7.66s-4.24-3.43-4.24-7.66,1.9-7.65,4.24-7.65,4.23,3.43,4.23,7.65" transform="translate(-0.6 -0.09)"/><path class="cls-5" d="M244.07,122.48c0,4-1.76,7.2-3.91,7.2s-3.92-3.22-3.92-7.2,1.75-7.22,3.92-7.22,3.91,3.24,3.91,7.22" transform="translate(-0.6 -0.09)"/><path class="cls-5" d="M182.36,139.65c0-8.61,4.9-20.81,23.7-22.07,18.53-1.25,27.23,9.58,31.3,18.33,6.51,14-1.06,48.37-7.35,62.48-4.51,10.14-14.68,29-28.89,31.86-5.08,1-14.37.12-18.76-9.61-3.19-7.08,3.15-13.26,5.66-17.09,3.92-6,13.48-15.6,13.9-23,.66-11.8-19.56-28.41-19.56-40.23" transform="translate(-0.6 -0.09)"/><path class="cls-5" d="M80.29,105.65c0,6.59,3.41,11.93,7.62,11.93s7.62-5.34,7.62-11.93-3.42-11.92-7.62-11.92-7.62,5.34-7.62,11.92" transform="translate(-0.6 -0.09)"/><path class="cls-5" d="M61.2,102.27c0,5.51,3.13,10,7,10s7-4.46,7-10-3.13-10-7-10-7,4.46-7,10" transform="translate(-0.6 -0.09)"/><path class="cls-5" d="M46.44,104.32c0,5,2.47,9,5.52,9s5.5-4,5.5-9-2.47-9-5.5-9-5.52,4-5.52,9" transform="translate(-0.6 -0.09)"/><path class="cls-5" d="M35.11,109.92c0,4.23,1.89,7.66,4.23,7.66s4.24-3.43,4.24-7.66-1.9-7.65-4.24-7.65-4.23,3.43-4.23,7.65" transform="translate(-0.6 -0.09)"/><path class="cls-5" d="M25.69,122.48c0,4,1.75,7.2,3.91,7.2s3.92-3.22,3.92-7.2-1.76-7.22-3.92-7.22-3.91,3.24-3.91,7.22" transform="translate(-0.6 -0.09)"/><path class="cls-5" d="M87.4,139.65c0-8.61-4.9-20.81-23.71-22.07-18.52-1.25-27.23,9.58-31.29,18.33-6.51,14,1.06,48.37,7.34,62.48,4.52,10.14,14.69,29,28.89,31.86,5.09,1,14.37.12,18.77-9.61,3.19-7.08-3.15-13.27-5.67-17.09-3.91-6-13.48-15.6-13.89-23-.66-11.8,19.56-28.41,19.56-40.23" transform="translate(-0.6 -0.09)"/><path class="cls-3" d="M113.83,37.17c.19.94,1.83.64,1.65-.32-.66-3.56-1-5.33-1.66-8.89-.72.13-1.08.2-1.79.35l1.8,8.86" transform="translate(-0.6 -0.09)"/><path class="cls-3" d="M127.43,35.36c.07,1,1.71.87,1.67-.1-.19-3.61-.29-5.41-.5-9-.72,0-1.09.05-1.81.11.25,3.61.38,5.4.64,9" transform="translate(-0.6 -0.09)"/><path class="cls-3" d="M141.12,35.28c-.06,1,1.61,1.09,1.67.12.27-3.61.41-5.41.68-9l-1.82-.11c-.21,3.6-.32,5.41-.53,9" transform="translate(-0.6 -0.09)"/></g></g></g></svg>